<?xml version="1.0" encoding="UTF-8"?> <svg fill="none" viewBox="0 0 500 500" xmlns="http://www.w3.org/2000/svg"> <g clip-rule="evenodd" fill-rule="evenodd"> <path d="m164.74 123.54c-50.183 20.761-73.005 52.256-83.287 75.009-6.6115 14.786-13.102 25.879-20.425 34.933-7.509 7.816-21.236 16.437-29.26 19.476l-1.4995 0.567-0.2721 5.466 2.0726 0.411c10.392 2.067 23.337 9.877 27.535 15.226 5.3958 5.425 9.1531 9.176 18.619 25.96 0.1332 0.203 4.8458 7.665 4.8458 7.665 3.0684 5.165 6.2411 10.508 14.74 19.916 6.5359 9.182 37.84 38.066 71.905 50.49 23.934 11.863 55.365 17.728 95.845 17.838 59.452 0.341 104.45-12.662 145.91-42.136 17.189-13.316 22.747-18.677 37.238-35.889 9.709-11.475 20.263-31.709 20.715-54.062l0.058-2.501-84.11-0.093-0.463 1.864c-6.837 27.448-34.488 44.568-50.362 52.331-41.424 17.612-93.593 17.826-132.78 0.487-36.636-18.359-56.111-43.19-54.739-69.874 1.395-27.199 24.553-53.199 58.989-66.225 66.607-24.409 130.63-3.422 154.82 19.284l0.706 0.66 98.004-0.092-1.325-3.347c-20.159-51.092-93.06-79.894-125.21-85.834-71.969-16.477-134.12-4.366-168.26 12.47" fill="#0B162A"/> <path d="m76.02 226.08c5.1179-8.088 7.15-12.651 9.9463-18.973l2.999-6.634c9.0258-19.204 24.211-36.804 43.901-50.89 19.244-12.893 40.561-23.221 58.428-28.31 77.642-22.556 157.03-3.196 191.45 15.319 13.605 6.241 50.42 28.096 65.311 56.482h-82.935c-57.75-44.927-135.65-33.504-174.07-14.752-15.521 8.621-24.541 15.574-35.836 27.616-17.537 21.224-26.968 57.379 3.861 89.783 13.935 13.553 27.871 22.735 45.239 29.856 40.167 16.645 96.534 14.792 137.06-4.515 25.891-13.507 43.08-31.426 50.033-51.891h69.96c-2.478 17.767-7.654 36.143-34.181 61.825l-2.953 2.646c-12.847 11.596-30.453 27.489-64.842 40.04-58.659 22.759-146.39 20.13-195.61-5.836-0.029-0.011-3.092-1.557-3.092-1.557-11.058-5.535-26.209-13.107-45.296-30.858-13.322-12.227-22.603-24.31-34.274-44.585-12.725-23.285-28.658-31.778-37.226-35.385 7.4685-3.763 22.064-12.719 32.126-29.381" fill="#fff"/> <path d="m79.054 238.97c8.3137-9.199 14.879-32.838 28.022-50.791 18.659-26.302 43.357-40.075 61.733-48.863 42.026-20.582 102.45-26.446 161.56-12.262 21.45 5.083 42.906 12.702 58.225 22.683 15.33 9.107 33.277 22.243 43.351 35.026h-63.14c-18.735-14.971-39.316-22.243-57.704-26.186-20.575-5.251-52.979-8.053-91.508 1.147-22.77 5.685-38.529 13.564-53.854 24.512-30.203 21.456-63.481 77.846-4.377 126.89 19.268 16.28 35.461 21.543 53.414 27.761 33.278 9.628 74.875 7.792 98.954 1.221 36.34-9.633 49.911-22.33 61.733-32.397 10.948-10.508 20.142-23.21 22.683-29.776l51.839-0.087c-3.595 19.355-17.606 35.114-31.176 48.25-15.545 14.653-27.147 22.33-50.091 33.805-53.674 25.74-132.49 24.865-181.08 7.265-24.958-9.112-31.964-13.223-50.791-26.272-15.325-12.343-25.398-20.489-39.843-42.819-6.5653-10.948-9.6337-17.073-17.073-27.141-5.2568-5.697-8.7594-10.954-17.953-15.331 8.4295-5.905 13.02-10.288 17.079-16.633" fill="#E64100"/> </g> </svg>