<?xml version="1.0" encoding="UTF-8"?> <svg fill="none" viewBox="0 0 500 500" xmlns="http://www.w3.org/2000/svg"> <g clip-path="url(#a)"> <path d="m455 368.08v-0.344c-1.845-24.945-7.421-50.176-17.056-77.146l-0.115-0.271-0.107-0.27-1.123-2.682 0.131 0.296c-4.018-10.431-12.398-14.933-24.739-13.399l-5.552 0.607-2.263 0.196c-9.52 0.878-23.19 2.1-35.26 0.976l-14.973-35.44c3.024-1.823 5.557-4.356 7.38-7.38 1.27-2.338 2.171-4.858 2.673-7.47 4.579-0.563 8.824-2.686 12.021-6.011 4.551-4.969 7.134-13.94 0.697-24.108l0.328 0.533-20.057-36.203-11.865 5.043c-47.56-76.67-138.06-88.412-204.84-59.598-60.581 26.15-119.26 95.12-85.28 203.56 3.6487 11.521 8.22 22.728 13.669 33.514-0.3443 3.393-0.1254 6.821 0.6478 10.143v0.18l0.0574 0.181c1.7384 6.56 3.321 10.889 7.38 19.918-0.187 6.141 2.0723 12.104 6.2812 16.58 6.6748 7.183 17.269 9.996 29.069 7.716l-0.566 0.082c15.58-2.189 25.748-6.765 31.062-9.84 23.386 16.4 53.956 23.682 81.098 19.172 17.687-2.936 31.98-10.586 41.82-22.222 5.227 0.314 10.471 0.16 15.67-0.459 7.801-0.492 15.469-2.259 22.698-5.232 10.028 11.701 23.591 20.09 39.868 24.395 19 5.01 40.549 4.674 61.049-0.82 3.667 0.261 7.34-0.431 10.66-2.009 21.533-4.92 26.339-6.978 29.52-9.701 0.047-0.031 0.088-0.07 0.123-0.114 7.675-5.232 10.176-15.088 9.898-22.37zm-54.014 21.402c-18.179 4.674-37.662 4.92-54.062 0.615-14.9-3.936-32.505-12.562-42.288-34.219-0.602-1.115-1.112-2.278-1.525-3.476 0 0 4.994 0.098 8.274-0.181 15.178 32.513 54.292 38.54 87.814 29.988 0 0 3.066-0.525 3.927-1.452 0.697-1.64 0.624-5.74 0.624-5.74-0.041-0.943-0.82-20.959-4.51-34.276-0.146-0.95-0.536-1.845-1.132-2.599-0.551-0.233-1.135-0.383-1.73-0.443-1.394 4e-3 -2.784 0.147-4.149 0.426-20.673 4.92-52.653 9.02-77.9 11.562-0.05 0-1.985 0.296-5.396 0.443l-2.731 0.074c-6.741 0.022-13.473-0.527-20.122-1.64 0 0-94.169-15.318-93.776-15.334l5.035-6.896 90.668 14.891c13.825 2.075 20.245 1.082 20.418 1.041 24.427-1.361 69.593-8.052 80.515-10.963 0 0 5.904-1.402 6.651-2.157 0.483-0.483-0.738-4.92-0.738-4.92-0.05-0.147-4.469-14.62-6.683-20.196v0.115c-0.058-0.23-1.017-3.321-2.034-3.789h-0.738s-1.304 0.246-2.895 0.607c-21.32 3.87-60.171 9.307-83.025 10.66 1.977-0.123-9.249 0.402-17.974-0.205-12.415-0.697-26.24-3.78-39.909-18.663-0.148-0.148-15.318-14.604-21.427-21.32-0.651-0.888-0.924-1.998-0.758-3.086s0.757-2.066 1.644-2.72c1.131-0.902 3.37-1.312 4.624 0.156 2.682 3.583 18.04 19.434 25.593 26.519 8.413 6.56 14.448 9.979 26.182 11.308 4.727 0.474 9.477 0.693 14.227 0.656 15.457 0.393 71.799-6.495 88.363-9.767 1.146-0.134 2.273-0.392 3.362-0.77v-0.32l0.099-0.697c0.475-0.583 1.094-1.032 1.796-1.304 0.848-0.399 1.792-0.548 2.722-0.429 0.929 0.119 1.806 0.501 2.526 1.101 11.816 21.78 23.484 62.23 20.787 92.783-4e-3 0.723-0.195 1.432-0.554 2.058-0.36 0.627-0.875 1.149-1.496 1.518-0.869 0.349-1.802 0.513-2.738 0.482s-1.855-0.257-2.699-0.663c0 0 0.082 0.222-2.862 1.222zm-25.576-45.436c1.55-0.287 7.913-1.698 7.913-1.698 6.733 10.119 17.548 17.417 17.548 17.417 0.279 2.542 0.509 9.02 0.509 9.02-16.982-8.331-25.97-24.756-25.97-24.756v0.017zm-59.737 12.587c-0.582-0.951-1.148-1.935-1.64-2.944l-0.82-1.591c1.312-0.147 2.05-0.27 2.05-0.27l4.24-0.443c-1.141 1.839-2.421 3.588-3.83 5.231v0.017zm-129.07-23.149c-0.886-0.053-1.745-0.326-2.5-0.792-0.756-0.466-1.384-1.113-1.829-1.881-0.204-0.41-0.285-0.87-0.234-1.325 0.051-0.456 0.232-0.886 0.521-1.242l11.791-18.04c0.747 1.419 6.667 4.978 6.667 4.978-2.46 3.673-11.349 16.867-11.365 16.875-0.329 0.494-0.788 0.887-1.326 1.136-0.539 0.249-1.135 0.344-1.725 0.275v0.016zm31.513-60.754c1.758 2.28 3.711 4.4 5.838 6.339l-9.02 14.325c-1.213 0.968-3.772 0-5.362-1.558-0.369-0.352-2.116-2.156-1.066-3.419l0.057-0.066 0.041-0.082c0.115-0.237 2.075-3.493 9.512-15.555v0.016zm14.465 32.8c-3.239-2.173-15.867-10.586-15.867-10.586l1.336-1.295c5.74 3.673 13.186 8.585 16.4 11.045 5.798 4.395 2.665 9.692 2.665 9.692 0.583-3.189-0.836-6.363-4.534-8.864v8e-3zm-17.548-9.602 16.531 11.07c2.46 1.78 4.92 4.83 3.469 8.963-0.214-3.871-5.011-6.921-5.011-6.921s-17.744-10.471-23.214-13.858c-3.116-1.96-2.796-4.666-1.164-6.084-0.238 4.239 6.297 7.667 9.389 6.822v8e-3zm-9.209 0.705c5.494 3.453 17.056 10.447 20.394 12.3 3.575 1.993 4.296 2.944 4.296 2.944 4.15 3.944 3.354 7.864 1.337 10.603-2.304 3.075-6.708 5.043-10.381 2.607l-4.986-3.083-1.812-1.082-15.514-9.537h-0.05s-2.583-1.197-3.23-3.575c-0.435-1.64 0.073-3.444 1.508-5.461 3.28-4.609 4.871-7.249 5.568-8.471 0.705 1.484 2.87 2.747 2.87 2.747v8e-3zm-2.78 19.59c7.29 4.354 17.639 10.783 17.639 10.783 7.125 4.535 12.619-1.984 14.358-4.297 1.345-1.804 5.494-7.38 5.354-12.16-0.147-4.641-3.706-7.134-6.888-9.225l-14.809-9.725 6.937-11.234c6.659 6.65 14.309 13.94 14.375 14.013 4.011 4.417 8.66 8.209 13.792 11.251 1.091 0.639 2.182 1.213 3.28 1.755 2.952 9.02 6.167 16.982 7.561 22.861-1.124-6.847-3.165-14.178-5.166-21.754 7.888 3.403 15.58 4.452 22.665 4.846l0.992 0.057 0.467 1.033c-2.796 7.454-8.011 15.449-14.76 20.32 0 0.385 0.049 0.779 0.066 1.173l-6.134-0.976-4.764-0.763-2.304-0.361-58.269-9.282 5.608-8.315zm174.7 14.973c-1.262 0.558-7.437 1.452-7.437 1.452-1.476-2.805-10.816-25.674-10.816-25.674 1.115-0.14 7.38-1.165 7.38-1.165 3.17 8.648 6.8 17.119 10.873 25.379v8e-3zm1.837-0.565-2.812-6.47c9.405 0.156 16.195 0.057 16.195 0.057 1.123 4.166-2.764 4.313-2.764 4.313l-10.619 2.1zm-52.742-15.162 0.049 1.164 36.802 6.314c0.697 2.017 3.329 7.979 3.329 7.979l-40.057-6.814v1.246c-0.222 4.461-0.912 8.886-2.058 13.202-1.772 0.189-3.551 0.361-5.355 0.533 2.608-8.651 2.927-18.319 1.788-27.618 1.681-0.18 3.386-0.36 5.108-0.557 0.148 1.525 0.287 3.034 0.394 4.543v8e-3zm-20.894 24.813c-2.807 0.412-5.655 0.475-8.479 0.189-2.525-4.773-5.313-11.275-12.439-26.88 2.831 0.322 5.689 0.322 8.52 0l12.398 26.691zm-59.86-110.7c-0.051 1.33 0.231 2.652 0.82 3.846 0.82 1.591 2.403 5.584 2.403 5.584 0.27-0.262-3.6 4.551-5.74 7.946l-13.022 21.369-3.501-3.854s-1.501-1.788-2.903-1.788c6.814-11.061 13.03-20.893 15.137-24.05 2.11-3.123 4.387-6.128 6.823-9.004l-0.017-0.049zm79.179-26.486c1.009-0.172 2.045 0.044 2.9 0.606 0.856 0.561 1.466 1.426 1.709 2.42 0.221 1.517-0.558 3.28-3.469 3.764l-1.361 0.27c-17.86 3.567-38.089 7.618-55.006 14.49-5.321 1.927-8.159 3.542-11.143 5.805 0 0-1.64-3.567-2.239-4.608-0.943-1.64-1.074-1.837-1.861-2.28 3.154-1.964 6.491-3.62 9.963-4.944 12.406-5.207 38.212-11.874 60.524-15.474l-0.017-0.049zm-8.093-23.977c-1.041 3.362 0.935 8.545 0.935 8.545l4.871 13.489-2.526 0.475s-3.124-8.634-5.1-14.612c-1.493-4.551-0.419-6.757-0.419-6.757l2.239-1.14zm1.984-0.943 2.518-1.304s0.213-0.139 0.205-0.098c-0.093 0.305-0.132 0.624-0.115 0.943-0.049 0.894 0 1.337 0.927 3.903 1.492 4.018 9.257 20.139 10.159 22.485 4.494 11.668-7.117 13.825-8.323 8.667 12.35-0.935 7.331-13.858 0.328-12.038-2.673-6.56-4.78-13.21-4.78-13.21s-2.723-7.142-0.902-9.299l-0.017-0.049zm42.575 25.379h0.18c1.476 0.213 2.354 2.116 2.206 3.69-0.082 0.82-0.59 2.772-3.493 2.772-2.632-0.574-9.512-1.23-13.038-1.566 0-2.944-1.812-7.167-1.812-7.167 3.919 0.475 13.899 1.632 15.973 2.32l-0.016-0.049zm-28.979 11.652s2.534-1.73 2.673-3.558c0 0 5.904 0 8.897 0.049 0.017 0.049-2.189 4.215-11.554 3.559l-0.016-0.05zm-80.089 10.578c0.609-9e-3 1.214 0.114 1.771 0.361l34.227 75.793c-2.822 0.109-5.647-0.078-8.43-0.558-14.588-31.906-31.668-69.29-31.685-69.331-0.349-0.562-0.534-1.211-0.534-1.873 0-0.663 0.185-1.312 0.534-1.874 0.444-0.71 1.05-1.304 1.769-1.733 0.718-0.43 1.529-0.682 2.364-0.735l-0.016-0.05zm2.246 25.42 1.362 3.01c-6.134 11.48-6.052 24.329-3.682 36.514l-0.599-0.467c-0.73-0.681-1.541-1.451-2.37-2.247-5.485-5.272-12.808-12.718-17.728-17.966 6.913-11.177 13.571-21.828 13.571-21.82 1.812-2.829 3.723-5.74 4.772-7.315l4.674 10.291zm2.542 5.601 20.238 44.608c-7.909-0.707-15.472-3.575-21.861-8.29-2.329-12.161-3.01-24.551 1.64-36.302l-0.017-0.016zm172.86 125.85c-3.968 1.123-16.851 4.51-16.851 4.51 0.453-2.648 0.643-5.335 0.566-8.02 24.854-5.338 1.263-7.585 1.263-7.585 5.486 1.689 5.33 3.649 5.33 3.649-2.386 0.139-6.56-1.123-6.56-1.123 0.139-1.55-0.279-7.872-0.279-7.872 6.462 2.812 7.487 2.009 14.186 3.509 6.864 1.55 3.502 4.363 3.502 4.363-3.502 4.362-16.4 6.182-16.4 6.182 21.615-2.812 19.68-8.708 19.68-8.708 8.774 5.765 0.049 9.832-4.437 11.095zm-3.46-51.939s-3.223 1.64-18.122 4.305c0 0-1.205-4.641-1.763-7.019 0 0 12.587-2.624 17.491-4.461 0 0-0.091-1.64-2.518-1.591 0 0-12.775 3.28-15.727 3.518l-0.697-1.968s10.938-2.108 14.596-2.952c0 0 7.724-2.665 9.405 3.239 0 0 1.706 5.1-2.665 6.929zm13.571 43.837c0-1.689-2.616-4.83-7.118-5.74 0.052-1.279 0.039-2.56-0.041-3.838-1.123-11.48-5.239-32.226-5.239-32.226 6.363-2.066 5.797-15.079-5.06-15.006-1.612-7.216-3.756-14.304-6.412-21.205 5.904-3.231 3.14-8.667-0.099-9.659 0 0 5.904-1.263 8.619 8.946 9.881 27.675 17.548 65.608 15.35 78.728zm-23.247-83.287c0.047 0.812-0.21 1.613-0.721 2.246s-1.239 1.054-2.042 1.181l-0.927 0.197c-2.304 0.722-6.913 1.804-11.529 2.673-1.736 0.386-3.49 0.684-5.256 0.894-0.607-1.337-1.025-2.714-2.78-6.117 5.42-0.888 10.79-2.057 16.088-3.502 1.331-0.332 2.681-0.584 4.043-0.754 0.813 0.074 1.574 0.434 2.146 1.017 0.573 0.583 0.919 1.35 0.978 2.165zm-24.961-1.009c-0.849-0.708-1.892-1.142-2.993-1.246 3.756 0.262 14.932-0.82 14.932-0.82-2.107 0.795-11.939 2.066-11.939 2.066zm-10.947 1.558c-5.059 1.263-16.752 2.542-16.752 2.542l-2.395-5.486c7.081 1.022 14.253 1.259 21.386 0.705-0.57 0.059-1.103 0.31-1.51 0.713-0.407 0.402-0.664 0.932-0.729 1.501v0.025zm-28.126-75.514c0.312 3.666 0.058 8.2-1.82 11.62-2.198 3.993-5.215 6.56-10.972 7.593-0.139 0-0.451 0.049-0.82 0.074l-0.566 0.073c-0.426 0-0.82 0.066-1.238 0.123 5.798 13.752 24.854 58.885 24.854 58.885-3.665 0.664-7.683 0.934-7.683 0.934l-24.075-56.457c-0.451 0.449-0.86 0.938-1.222 1.46-0.23 0.279-0.467 0.541-0.713 0.82-3.74 4.682-6.019 10.709-7.298 17.113-0.099 0.419-0.238 1.066-0.394 1.936 11.373 17.482 26.658 24.042 26.658 24.042l3.83 9.241c-15.179-4.411-27.88-18.179-31.406-22.304v1.14c-0.065 6.765 0.65 13.514 2.132 20.115 0.721 2.269 1.361 4.545 1.918 6.83l-5.19 0.525c-1.105-4.335-2.528-8.583-4.256-12.71-8.577-20.303-31.98-11.012-30.34 1.206l-19.836-43.772c3.889-4.217 8.313-7.905 13.161-10.972-3.082 1.423-5.959 3.255-8.552 5.445-1.791 1.374-3.492 2.861-5.093 4.453l-1.254-2.657c-1.386-3.067-2.624-5.781-3.649-8.061 3.493-2.246 7.052-4.551 11.545-6.174 13.014-5.289 28.044-8.897 42.427-11.907l2.403-0.492c0.434 7.175-3.198 9.914-9.455 11.218-4.1 0.82-7.38 0.976-9.069 1.542l3.879 0.131c3.562-0.14 7.08-0.831 10.43-2.05 3.903-1.452 6.847-4.1 5.592-11.128l2.009-0.41c1.058 6.7 0.074 13.186-12.931 14.441 2.222 1.533 22.468-2.223 34.653 0.574 0.295 0.131 5.404 1.894-0.434 4.444 11.307-2.517 11.931-13.784 9.782-22.14l0.459 0.057c1.796 0.129 3.584 0.356 5.355 0.681 1.091 0.115 2.403 0.262 3.764 0.443 8.421 0.82 7.642-9.119 3.222-10.398-1.657-0.536-3.358-0.922-5.084-1.156l-1.18-0.131-10.505-23.419 5.814-2.698 15.031 27.117c6.978 11.078-4.592 15.646-10.972 12.3-1.163 0.549-2.166 1.387-2.911 2.436v0.024zm-73.414 156.54s-10.66 1.435-19.262-0.32c-21.492 32.866-79.688 30.66-115.28 2.895-0.656-0.492-1.328-0.984-2.017-1.468-2.46 1.862-12.915 9.143-32.989 12.243-16.867 3.28-23.829-7.7-21.812-15.129-4.9774-10.988-6.355-14.801-8.0032-20.992-0.7549-3.087-0.7549-6.31 0-9.397-5.8657-11.233-10.731-22.961-14.539-35.047-60.647-193.61 191.55-274.68 273.39-128.4 1.599 0.14 2.558 0.517 3.058 1.55l2.247-0.902 9.84 22.296c-1.222-0.246-4.592-0.533-5.42-0.599 3e-3 0.038 3e-3 0.077 0 0.115l-1.681-0.156-0.82-0.041c-2.14-6.609-4.92-15.014-6.864-19.934-1.166-0.185-2.345-0.278-3.526-0.279 0 0.058 0.058 0.09 0.082 0.14 1.501 2.804 6.06 16.908 7.577 20.754 2.099 5.338 1.952 8.339 1.952 8.339l-9.799-0.188c-0.156-2.862-2.87-8.241-2.87-8.241l-3.649-7.38-0.992-2.108-3.731-7.962c-0.619-1.402-1.049-2.88-1.28-4.395-0.656-5.15 4.412-5.15 4.543-5.15 2.632 0.049 4.781 1.017 6.905 4.002h1.353c-3.051-6.085-4.773-7.962-6.798-11.324-38.114-54.268-101.43-70.34-157.24-56.777 70.684-10.348 124.64 20.065 151.5 65.526-2.255 1.115-5.978 2.977-7.708 3.911-0.779 0-3.666-0.073-4.633 0-1.681 0.14-3.28 0.222-2.108 4.223 0.518 1.856 1.128 3.684 1.829 5.478 0.82 2.189 3.362 8.799 5.232 14.424l-1.977 0.377c-0.344-1-0.721-2.042-1.148-3.141-2.197-5.592-4.846-12.849-5.617-15.317-0.401-1.271-0.992-3.707-0.278-5.806 0 0-2.674 2.099-0.287 7.774l6.035 16.736-2.46 0.484c-18.311 3.673-36.236 8.528-46.306 12.743 0 0-7.544 2.73-12.89 7.093-0.15 0.098-0.26 0.246-0.312 0.418-1.591 0.49-2.984 1.475-3.977 2.812-1.158 0.875-2.253 1.828-3.28 2.854-2.115 2.46-3.968 4.6-6.33 7.847-2.066 3.084-9.496 14.834-16.121 25.568-0.593 0.215-1.147 0.525-1.64 0.918-0.926 0.724-1.643 1.681-2.075 2.774-0.433 1.093-0.566 2.281-0.385 3.442-5.371 8.7-8.528 13.751-9.84 15.859-0.936 0.08-1.841 0.379-2.64 0.873-0.799 0.495-1.471 1.17-1.96 1.972-1.296 2.6-6.938 11.849-7.954 12.874-0.634 0.83-1.083 1.784-1.318 2.801-0.234 1.017-0.249 2.072-0.044 3.095l-0.508 1-12.39 18.483c-0.516 0.677-0.834 1.484-0.918 2.331s0.069 1.701 0.442 2.466c0.615 1.132 1.507 2.09 2.592 2.782 1.086 0.693 2.33 1.099 3.616 1.179 1.327 0.111 2.652-0.242 3.747-1.001l65.912 10.98 3.222 0.533 5.158 0.861 4.174 0.697c-0.487 6.939-2.299 13.719-5.338 19.975l1.156 0.156c18.187 1.476 31.16-1.755 40.131-7.839 0.77 1.468 1.59 2.895 2.46 4.264-7.044 4.633-15.999 7.61-27.142 8.348v0.024zm163.88 18.68-0.172 0.098c0.18-0.098 0.336-0.246 0.516-0.361l-0.344 0.263z" fill="#fff"/> <path d="m240.79 386.69c6.798-3.464 12.612-8.589 16.9-14.9h-0.041c1.887-2.669 3.396-5.585 4.486-8.667-4.095 10.139-11.66 18.492-21.345 23.567z" fill="#fff"/> <path d="m231.91 270.06c4.92 5.248 12.243 12.694 17.729 17.967-1.247-7.889-1.542-16.007 0.09-23.51 1.011-4.681 2.763-9.171 5.19-13.3l-4.674-10.291c-1.049 1.574-2.96 4.485-4.772 7.314 8e-3 -8e-3 -6.65 10.644-13.563 21.82z" fill="#FF3C00"/> <path d="m249.56 308.84c3.816 8.075 6.649 16.58 8.438 25.33l4.764 0.763c-0.5-2.46-1.025-4.666-1.443-6.56-0.861-3.977-4.395-12.432-7.519-22.747-5.134-3.047-9.783-6.845-13.793-11.267-0.065-0.074-7.716-7.38-14.374-14.014l-6.938 11.234 14.81 9.725c3.181 2.091 6.74 4.584 6.888 9.225 0.139 4.781-4.01 10.357-5.355 12.161-1.738 2.312-7.232 8.831-14.358 4.297 0 0-10.349-6.429-17.638-10.783l-5.617 8.315 58.31 9.29c-1.296-9.217-4.338-17.63-6.175-24.969z" fill="#FF3C00"/> <path d="m273.86 232.86c8.512-4.6 13.752-7.093 27.232-8.823l3.362-0.468c2.296-0.336 6.675-1.254 7.93-3.534 0.76-1.592 1.072-3.361 0.902-5.117-14.383 3.01-29.414 6.618-42.427 11.907-4.494 1.64-8.052 3.928-11.546 6.174 1.025 2.28 2.264 4.994 3.649 8.061 2.839-2.737 5.981-5.141 9.365-7.167 0.484-0.352 1.533-1.033 1.533-1.033z" fill="#FF3C00"/> <path d="m304.38 178.49c0.42-0.612 0.983-1.113 1.64-1.459-22.288-37.72-75.695-76.711-145.04-64.903-67.199 21.549-119.62 87.026-96.301 180.36 9.7334 35.415 21.107 54.193 33.456 71.799 0 0-0.5576 8.544 14.186 4.1 13.35-4.043 21.492-4.346 35.432 6.043 24.297 18.106 66.109 26.322 93.054 12.3 9.679-5.084 17.235-13.442 21.32-23.583 1.732-5.108 2.483-10.497 2.214-15.883l-5.158-0.861c-1.148 22.033-22.96 43.255-62.066 40.811-16.285-0.607-33.669-8.528-44.042-14.178-4.772-3.198-18.22-10.742-24.674-12.169 5.609 0.304 19.68 7.643 25.519 11.046 12.062 6.207 28.888 12.177 43.206 12.775 26.084 2.46 55.678-10.922 58.835-38.818l-65.904-11.021c-1.095 0.758-2.42 1.112-3.747 1-1.286-0.08-2.53-0.486-3.616-1.178-1.085-0.693-1.977-1.651-2.592-2.782-0.373-0.766-0.526-1.619-0.442-2.466s0.402-1.655 0.918-2.331l12.39-18.483 0.509-1.001c-0.206-1.023-0.191-2.078 0.043-3.095 0.235-1.016 0.684-1.971 1.318-2.8 1.017-1.025 6.658-10.275 7.954-12.874 0.486-0.798 1.153-1.471 1.946-1.965s1.691-0.796 2.621-0.881c1.312-2.107 4.469-7.158 9.84-15.859-0.18-1.161-0.047-2.349 0.385-3.442 0.433-1.093 1.149-2.05 2.075-2.773 0.493-0.394 1.047-0.704 1.64-0.919 6.626-10.733 14.055-22.484 16.121-25.567 2.362-3.28 4.215-5.412 6.331-7.848 1.026-1.025 2.122-1.979 3.28-2.853 0.992-1.338 2.385-2.323 3.977-2.813 0.051-0.172 0.162-0.32 0.311-0.418 5.347-4.362 12.891-7.093 12.891-7.093 10.069-4.215 27.995-9.069 46.305-12.743-1.279-3.706-5.354-15.424-5.354-15.424-0.181-0.484-3.01-6.281-0.779-9.75zm-82.386 163.18c1.785 8e-3 3.513 0.63 4.893 1.762 1.379 1.132 2.327 2.705 2.683 4.454 0.357 1.749 0.099 3.567-0.728 5.149-0.827 1.581-2.174 2.83-3.814 3.535-0.563 0.599-1.267 1.05-2.047 1.313-0.78 0.262-1.613 0.328-2.424 0.191-0.812-0.137-1.577-0.473-2.227-0.977-0.651-0.504-1.167-1.162-1.502-1.913-1.171-1.047-1.997-2.425-2.366-3.952-0.37-1.527-0.266-3.13 0.297-4.597 0.563-1.466 1.559-2.727 2.856-3.614 1.297-0.886 2.833-1.358 4.404-1.351h-0.025zm-61.057 24.518c-1.19 0.923-2.697 1.336-4.19 1.148-1.739 1.091-4.445 0.484-6.38-1.55-1.787-1.894-2.32-4.395-1.443-6.084-0.377-2.747 0.467-5.478 2.411-6.847 2.944-2.066 7.38-0.82 9.955 2.829 2.574 3.649 2.435 8.184-0.353 10.504zm38.22-20.861c-13.005 13.768-38.794 13.678-53.447-5.1 24.796 23.009 47.92 7.806 53.447 5.1zm-23.517-16.4c-1.605 0.531-3.287 0.791-4.978 0.771-2.448-0.055-4.861-0.599-7.097-1.598-2.236-1-4.25-2.436-5.924-4.224-6.905-7.224-7.38-18.376-1.001-24.838 1.426-1.447 3.131-2.59 5.011-3.359 1.88-0.77 3.897-1.15 5.928-1.118 2.451 0.06 4.865 0.608 7.101 1.614 2.237 1.005 4.249 2.447 5.921 4.241 3.397 3.538 5.35 8.217 5.477 13.12l-10.438 15.391z" fill="#FF3C00"/> <path d="m255.74 333.81 2.304 0.361c-1.789-8.75-4.622-17.254-8.438-25.33 1.796 7.339 4.838 15.752 6.134 24.969z" fill="#311D00"/> <path d="m197.13 384.65c-14.317-0.598-31.16-6.56-43.205-12.775-5.88-3.403-19.91-10.742-25.519-11.046 6.454 1.427 19.91 8.971 24.674 12.169 10.373 5.65 27.757 13.571 44.042 14.178 39.065 2.46 60.918-18.778 62.066-40.811l-3.223-0.533c-3.157 27.896-32.75 41.27-58.835 38.818z" fill="#311D00"/> <path d="m167.58 294.56c-2.031-0.033-4.048 0.348-5.928 1.117-1.88 0.77-3.585 1.913-5.011 3.36-6.355 6.461-5.904 17.613 1.001 24.838 1.67 1.795 3.683 3.238 5.919 4.245s4.651 1.557 7.102 1.618c1.691 0.02 3.373-0.241 4.978-0.771l10.438-15.441c-0.127-4.903-2.08-9.582-5.477-13.12-1.672-1.792-3.685-3.233-5.921-4.237-2.237-1.004-4.651-1.551-7.101-1.609z" fill="#311D00"/> <path d="m145.71 340.23c14.653 18.778 40.442 18.86 53.448 5.1-5.527 2.706-28.651 17.909-53.448-5.1z" fill="#311D00"/> <path d="m216.81 355.18c0.335 0.752 0.851 1.409 1.502 1.913 0.65 0.505 1.415 0.84 2.227 0.977 0.811 0.138 1.644 0.072 2.424-0.19 0.78-0.263 1.484-0.714 2.047-1.314 1.558-0.651 2.863-1.79 3.717-3.246 0.854-1.457 1.212-3.152 1.02-4.829-0.192-1.678-0.924-3.247-2.086-4.473-1.162-1.225-2.69-2.04-4.355-2.321-1.665-0.282-3.376-0.014-4.876 0.761-1.5 0.776-2.707 2.018-3.44 3.539s-0.952 3.239-0.623 4.896c0.328 1.656 1.185 3.161 2.443 4.287zm4.535 2.083c-0.847 0.012-1.678-0.229-2.388-0.691s-1.267-1.125-1.599-1.904c-0.333-0.779-0.426-1.64-0.268-2.472 0.157-0.832 0.559-1.599 1.153-2.202 0.595-0.604 1.355-1.017 2.185-1.187 0.829-0.171 1.691-0.091 2.475 0.229 0.784 0.321 1.455 0.867 1.928 1.57 0.473 0.702 0.727 1.53 0.729 2.377 4e-3 0.558-0.102 1.111-0.311 1.628-0.21 0.517-0.519 0.987-0.91 1.385-0.392 0.397-0.858 0.714-1.371 0.931-0.514 0.218-1.065 0.332-1.623 0.336zm3.354-8.569c-1.091-1.222-3.838-1.787-5.412-0.738-0.714 0.443-1.444-0.131-0.542-1.049 0.476-0.395 1.027-0.688 1.619-0.863 0.593-0.175 1.215-0.227 1.828-0.155 0.614 0.073 1.206 0.27 1.741 0.579s1.002 0.723 1.372 1.218c0.788 1.139-0.016 1.91-0.606 1.008zm-2.51-5.633c1.24 0.031 2.444 0.425 3.463 1.133 1.019 0.707 1.808 1.697 2.271 2.848s0.579 2.412 0.334 3.628-0.841 2.333-1.713 3.215c1.828-3.928 0.328-8.93-4.494-9.143-5.01-0.197-6.675 4.83-5.806 7.462-1.689-1.591-1.107-9.11 5.945-9.143z" fill="#311D00"/> <path d="m218.74 346.91c-0.902 0.918-0.172 1.492 0.542 1.049 1.574-1.049 4.321-0.483 5.412 0.738 0.59 0.902 1.394 0.132 0.631-1.008-0.37-0.499-0.838-0.916-1.376-1.227-0.537-0.311-1.132-0.509-1.748-0.582-0.617-0.073-1.242-0.019-1.837 0.158s-1.147 0.474-1.624 0.872z" fill="#fff"/> <path d="m222.05 344.74c4.822 0.213 6.322 5.215 4.494 9.143 0.872-0.882 1.468-2 1.713-3.215 0.245-1.216 0.129-2.477-0.334-3.628s-1.252-2.141-2.271-2.849c-1.019-0.707-2.223-1.101-3.463-1.132-7.052 0-7.634 7.552-5.945 9.143-0.869-2.633 0.796-7.659 5.806-7.462z" fill="#fff"/> <path d="m225.56 352.98c-0.011-0.833-0.269-1.644-0.74-2.331s-1.135-1.22-1.908-1.53c-0.773-0.311-1.621-0.386-2.437-0.216-0.815 0.17-1.562 0.578-2.147 1.171-0.584 0.594-0.98 1.347-1.138 2.165-0.157 0.819-0.069 1.665 0.254 2.433 0.322 0.768 0.865 1.424 1.559 1.884 0.694 0.461 1.509 0.706 2.342 0.704 0.558-3e-3 1.11-0.116 1.624-0.333 0.515-0.217 0.981-0.534 1.373-0.931 0.391-0.398 0.7-0.869 0.909-1.387 0.21-0.517 0.314-1.071 0.309-1.629zm-4.256 3.346c-0.665-4e-3 -1.315-0.204-1.867-0.576s-0.981-0.899-1.234-1.514c-0.253-0.616-0.318-1.293-0.186-1.945 0.131-0.653 0.452-1.252 0.923-1.722 0.472-0.47 1.071-0.79 1.724-0.919 0.653-0.13 1.329-0.063 1.944 0.191s1.141 0.685 1.512 1.238 0.569 1.203 0.571 1.868c1e-3 0.445-0.086 0.885-0.256 1.296s-0.419 0.784-0.734 1.098-0.689 0.563-1.1 0.732-0.852 0.255-1.297 0.253z" fill="#fff"/> <path d="m221.3 349.59c-0.666 3e-3 -1.316 0.204-1.869 0.577-0.552 0.372-0.981 0.9-1.234 1.517-0.252 0.616-0.316 1.294-0.183 1.947 0.132 0.653 0.455 1.252 0.928 1.721s1.074 0.788 1.728 0.916 1.331 0.059 1.946-0.198c0.614-0.257 1.139-0.69 1.508-1.245 0.368-0.555 0.564-1.207 0.563-1.873 0-0.444-0.088-0.883-0.259-1.292-0.17-0.41-0.42-0.782-0.735-1.094-0.315-0.313-0.688-0.56-1.099-0.727-0.411-0.168-0.85-0.252-1.294-0.249zm-2.46 3.477c0.098-0.427 0.295-0.213 0.394 0.115 0.918 1.451 3.476 1.566 4.247 0.442 0.402-0.565 0.394 0.214 0.394 0.214-1.64 3.173-5.314 1.205-5.035-0.771z" fill="#311D00"/> <path d="m223.45 353.62c-0.771 1.123-3.329 1.008-4.248-0.443-0.098-0.328-0.295-0.541-0.393-0.115-0.246 1.935 3.427 3.944 5.034 0.771 0 0 9e-3 -0.779-0.393-0.213z" fill="#fff"/> <path d="m151.34 352.86c-1.944 1.369-2.788 4.1-2.411 6.847-0.878 1.689-0.345 4.19 1.443 6.084 1.935 2.034 4.641 2.641 6.38 1.55 1.493 0.187 3-0.225 4.19-1.148 2.788-2.321 2.911-6.863 0.352-10.504-2.558-3.641-7.011-4.896-9.954-2.829zm-0.468 12.3c-1.812-1.903-2.124-4.543-0.697-5.904s4.043-0.902 5.855 1.008c1.812 1.911 2.124 4.56 0.697 5.904-1.427 1.345-4.043 0.911-5.855-1v-8e-3zm6.954-4.617c-0.68-1.239-1.779-2.195-3.1-2.698-0.943-0.18-0.582-1.705 0.541-1.32 1.204 0.542 2.259 1.366 3.075 2.403 1.034 1.714-0.065 2.575-0.516 1.623v-8e-3zm1.279 5.314c5.182-6.741-4.92-14.588-8.872-8.356 3.312-10.168 16.678 2.616 8.872 8.364v-8e-3z" fill="#311D00"/> <path d="m155.26 356.53c-1.123-0.385-1.484 1.14-0.541 1.321 1.321 0.502 2.42 1.458 3.1 2.697 0.451 0.952 1.55 0.091 0.516-1.64-0.819-1.027-1.874-1.843-3.075-2.378z" fill="#fff"/> <path d="m150.23 357.5c3.977-6.232 14.055 1.64 8.873 8.356 7.806-5.74-5.56-18.524-8.873-8.356z" fill="#fff"/> <path d="m156.03 360.27c-1.813-1.911-4.428-2.354-5.855-1.009s-1.115 4.002 0.697 5.904 4.436 2.37 5.855 1.009c1.418-1.362 1.115-3.994-0.697-5.904zm-0.05 5.494c-1.189 0.877-3.189 0.155-4.657-1.189-1.468-1.345-1.706-3.69-0.623-4.748 1.221-1.173 3.386-0.435 4.682 1.041 1.049 1.214 1.96 3.871 0.598 4.896z" fill="#fff"/> <path d="m150.7 359.83c-1.083 1.057-0.96 3.28 0.623 4.747 1.582 1.468 3.468 2.067 4.657 1.189 1.353-1.025 0.451-3.681-0.598-4.92-1.32-1.451-3.461-2.189-4.682-1.016zm4.28 5.354c-2.46 0.23-4.608-2.714-3.715-4.018 0 0 0.673-0.918 0.82-0.074 0.194 0.787 0.59 1.508 1.148 2.095s1.259 1.018 2.034 1.251c0.328 0.09 0.435 0.615-0.287 0.746z" fill="#311D00"/> <path d="m152.06 361.09c-0.123-0.82-0.82 0.074-0.82 0.074-0.894 1.304 1.287 4.248 3.714 4.018 0.722-0.131 0.615-0.656 0.263-0.746-0.771-0.237-1.467-0.669-2.021-1.256-0.553-0.586-0.945-1.306-1.136-2.09z" fill="#fff"/> <path d="m139.91 373.63c0.476-0.328 0.976-0.697 1.362-0.976-6.642-4.239-14.883-7.011-28.282-2.591l-0.599 0.189c3.215-0.648 7.667-1.394 10.447-1.206 3.542 0.263 8.749 0.771 13.678 3.895l-2.46 1.345c-8.475 4.237-17.677 6.828-27.118 7.634-5.477 0.394-4.42-2.804-0.82-4.624 1.985-1.009 3.657-2.928 4.395-6.446-0.598 0.312-0.598 0.181-1.476 0.345h-0.098c-1.197 8.61-18.04 7.716-16.17-3.994 0 0-2.46-4.977-3.813-7.863 0 0.114-0.3444-1.813-0.1558-1.862 0 0 4.1 6.675 5.8138 8.791-2.2714 7.995 9.4134 11.332 12.546 5.313-10.3 1.919-10.66-3.354-10.537-5.117-0.082-0.254-0.1394-0.541-0.205-0.82-1.7958-1.828-7.6342-9.577-14.276-21.746-0.8856 7.093 7.1504 23.501 7.8146 25.117l0.6888 1.697c-2.46 6.724 4.5592 15.531 17.113 13.505 12.358-1.156 26.232-6.33 32.152-10.586z" fill="#fff"/> <path d="m313.19 352.08 0.82 1.59c0.533 1.009 1.099 1.993 1.64 2.944 1.401-1.649 2.673-3.404 3.805-5.248l-4.239 0.443s-0.714 0.123-2.026 0.271z" fill="#311D00"/> <path d="m319.54 339.08c1.804-0.172 3.583-0.344 5.355-0.533 1.146-4.316 1.836-8.741 2.058-13.202v-1.246l40.057 6.814s-2.632-5.962-3.329-7.979l-36.802-6.314-0.049-1.164c-0.107-1.509-0.246-3.018-0.435-4.543-1.722 0.197-3.427 0.377-5.108 0.558 1.189 9.298 0.869 18.966-1.747 27.609z" fill="#311D00"/> <path d="m249.64 288.03c0.82 0.82 1.64 1.566 2.37 2.246l0.599 0.468c-2.37-12.185-2.46-25.018 3.682-36.515l-1.37-3.009c-2.43 4.128-4.185 8.618-5.199 13.3-1.623 7.503-1.361 15.621-0.082 23.51z" fill="#311D00"/> <path d="m262.77 334.93 6.133 0.975c0-0.393-0.041-0.82-0.065-1.172 6.748-4.871 11.963-12.866 14.76-20.32l-0.468-1.033-0.992-0.057c-7.06-0.394-14.76-1.444-22.665-4.847 2.001 7.577 4.043 14.908 5.166 21.755-1.394-5.879-4.608-13.858-7.56-22.862-1.091-0.541-2.181-1.115-3.28-1.754 3.124 10.315 6.658 18.769 7.519 22.746 0.427 1.903 0.984 4.117 1.452 6.569z" fill="#311D00"/> <path d="m317.14 278.91c-2.46-11.291 0.148-32.283 8.38-38.269-11.767 1.426-15.039 30.914-8.38 38.269z" fill="#fff"/> <path d="m277.71 301.43-20.237-44.608c-4.65 11.751-3.969 24.141-1.64 36.318 6.394 4.718 13.963 7.586 21.877 8.29z" fill="#311D00"/> <path d="m356.07 213.89c6.379 3.329 17.95-1.238 10.971-12.3l-15.03-27.134-5.814 2.698 10.504 23.419 1.181 0.132c1.726 0.233 3.427 0.62 5.084 1.156 4.42 1.279 5.199 11.234-3.223 10.397-1.361-0.18-2.673-0.328-3.764-0.442-1.771-0.325-3.558-0.553-5.354-0.681l-0.459-0.057c2.148 8.372 1.525 19.639-9.783 22.14 5.838-2.551 0.73-4.314 0.435-4.445-12.186-2.796-32.431 0.96-34.654-0.574 13.006-1.254 13.99-7.741 12.932-14.44l-2.009 0.41c1.254 7.052-1.689 9.676-5.593 11.127-3.349 1.219-6.868 1.911-10.43 2.05l-3.879-0.131c1.681-0.566 5.002-0.705 9.07-1.541 6.256-1.304 9.889-4.043 9.454-11.218l-2.402 0.492c0.169 1.756-0.142 3.525-0.902 5.117-1.255 2.279-5.634 3.198-7.93 3.534l-3.362 0.467c-13.481 1.731-18.72 4.223-27.232 8.824 0 0-1.05 0.664-1.533 1.033-3.388 2.014-6.535 4.407-9.381 7.134l1.197 2.64c1.6-1.591 3.301-3.079 5.092-4.452 2.594-2.191 5.47-4.022 8.553-5.445-4.848 3.066-9.273 6.755-13.161 10.971l19.836 43.772c-1.64-12.218 21.787-21.509 30.34-1.205 1.728 4.126 3.15 8.374 4.255 12.71l5.191-0.525c-0.547-2.28-1.186-4.557-1.919-6.831-1.481-6.6-2.196-13.35-2.132-20.114v-1.14c3.534 4.1 16.228 17.892 31.406 22.304l-3.772-9.225s-15.285-6.56-26.642-23.993c0.156-0.87 0.296-1.517 0.394-1.936 1.279-6.404 3.559-12.431 7.298-17.113 0.246-0.312 0.484-0.574 0.713-0.82 0.363-0.522 0.772-1.011 1.222-1.46l24.075 56.457s4.018-0.27 7.684-0.934c0 0-19.057-45.1-24.854-58.885 0.393-0.057 0.82-0.09 1.238-0.123l0.566-0.073c0.352 0 0.664-0.05 0.82-0.074 5.74-1.033 8.774-3.6 10.971-7.593 1.878-3.428 2.132-7.954 1.821-11.62 0.742-1.057 1.744-1.905 2.911-2.46zm-38.926 65.018c-6.658-7.38-3.386-36.843 8.381-38.269-8.233 5.986-10.808 26.978-8.381 38.269z" fill="#311D00"/> <path d="m216.68 318.35c0.233 0.59 0.507 1.162 0.82 1.714 0.523 0.896 1.265 1.644 2.157 2.173 6.51 3.87 10.102-1.058 10.135-1.099s2.993-3.911-1.337-8.2c-0.871-0.743-1.882-1.303-2.974-1.648-1.091-0.345-2.241-0.468-3.381-0.361-0.437-1.664-1.442-3.122-2.84-4.124s-3.103-1.483-4.819-1.362h-0.073c-4.322 0.295-5.33 2.632-5.822 3.977-0.308 0.906-0.421 1.867-0.33 2.82 0.09 0.952 0.382 1.875 0.854 2.707-0.016 0.115 2.083 4.256 7.61 3.403zm5.699-6.248c4.863-0.148 8.659 4.715 6.216 8.282l-0.886 0.147c-4.239 0.558-6.626-1.123-7.339-4.92 1.08-0.882 1.795-2.132 2.009-3.509zm-5.683-5.199c2.411 0.771 4.166 2.886 4.051 5.059h0.271c-0.197 1.583-1.862 3.731-5.256 3.215-0.152-0.701-0.232-1.416-0.238-2.132 0.593 0.201 1.219 0.293 1.845 0.27 2e-3 -0.332 0.024-0.663 0.065-0.992-0.67-0.075-1.322-0.267-1.927-0.566 0.027-1.687 0.433-3.346 1.189-4.854zm-5.625 1.049c0.47-0.457 1.035-0.805 1.654-1.02 0.619-0.216 1.278-0.293 1.93-0.226-0.693 1.332-1.053 2.812-1.05 4.313-0.336-0.279-0.599-0.287-0.935-0.639v1.197c0.213 0.377 0.55 0.492 0.976 0.82-0.016 0.827 0.069 1.653 0.254 2.46-0.221-0.074-0.344-0.254-0.582-0.369-3.37-1.919-2.247-6.536-2.247-6.536zm-1.254 1.485c-0.566 7.019 5.838 8.044 9.438 6.715 0.779 5.683 5.74 5.831 8.118 5.453-0.937 0.507-1.98 0.785-3.045 0.811-1.064 0.026-2.12-0.201-3.08-0.662s-1.797-1.143-2.443-1.989c-0.646-0.847-1.082-1.835-1.272-2.883-4.502 1.378-9.627-2.263-7.716-7.445z" fill="#fff"/> <path d="m330.92 184.99c-1.427-0.918-3.6-4.051-3.28-6.601 3.354 0.049 4.363 4.92 3.28 6.601z" fill="#311D00"/> <path d="m334.39 194.09c-1.687-1.629-2.667-3.855-2.731-6.199 2.665 0.541 4.272 3.846 2.731 6.199z" fill="#311D00"/> <path d="m320.09 187.57s2.107 6.61 4.78 13.211c7.003-1.821 12.021 11.102-0.328 12.037 1.206 5.158 12.817 3.001 8.323-8.667-0.902-2.345-8.667-18.467-10.16-22.485-0.943-2.566-0.975-3.009-0.926-3.903-0.017-0.318 0.022-0.637 0.115-0.943l-0.205 0.099-2.518 1.303c-1.82 2.157 0.919 9.348 0.919 9.348z" fill="#311D00"/> <path d="m315.31 187.01c1.976 5.978 5.1 14.612 5.1 14.612l2.526-0.475-4.814-13.44s-1.976-5.182-0.934-8.544l-2.296 1.09s-1.075 2.206 0.418 6.757z" fill="#311D00"/> <path d="m332.77 215.26c9.364 0.656 11.57-3.51 11.57-3.51-2.993-0.049-8.897-0.049-8.897-0.049-0.164 1.828-2.673 3.559-2.673 3.559z" fill="#311D00"/> <path d="m224.15 262.73c1.403 0 2.903 1.787 2.903 1.787l3.502 3.854 13.021-21.369c2.165-3.395 6.035-8.2 5.74-7.946 0 0-1.64-3.993-2.402-5.584-0.59-1.193-0.872-2.515-0.82-3.846-2.434 2.881-4.708 5.893-6.815 9.02-2.099 3.231-8.314 13.022-15.129 24.084z" fill="#311D00"/> <path d="m389.22 288.99c1.1 0.104 2.144 0.538 2.993 1.246 0 0 9.84-1.246 11.939-2.099 8e-3 0-11.177 1.115-14.932 0.853z" fill="#311D00"/> <path d="m392.97 324.21s-6.789 0.098-16.195-0.058l2.813 6.47 10.66-2.099s3.846-0.148 2.722-4.313z" fill="#311D00"/> <path d="m366.88 305.84s-6.273 1.025-7.38 1.164c0 0 9.34 22.87 10.816 25.674 0 0 6.174-0.893 7.437-1.451-4.074-8.263-7.704-16.737-10.873-25.387z" fill="#311D00"/> <path d="m383.32 342.33s-6.363 1.41-7.913 1.697c0 0 9.02 16.4 25.97 24.723 0 0-0.23-6.461-0.509-9.02 8e-3 0.017-10.816-7.281-17.548-17.4z" fill="#311D00"/> <path d="m434.66 371.56s1.968 5.896-19.68 8.709c0 0 12.915-1.821 16.4-6.183 0 0 3.362-2.813-3.501-4.363-6.7-1.5-7.725-0.697-14.186-3.509 0 0 0.418 6.322 0.279 7.872 0 0 4.206 1.263 6.56 1.123 0 0 0.155-1.96-5.33-3.649 0 0 23.591 2.247-1.263 7.585 0.076 2.686-0.113 5.372-0.566 8.02 0 0 12.882-3.387 16.851-4.51 4.567-1.263 13.292-5.33 4.436-11.095z" fill="#311D00"/> <path d="m285.03 313.61c7.126 15.58 9.914 22.14 12.44 26.879 2.823 0.287 5.671 0.224 8.479-0.188l-12.399-26.65c-2.832 0.308-5.69 0.294-8.52-0.041z" fill="#311D00"/> <path d="m248.58 228.35c-0.35 0.562-0.535 1.211-0.535 1.874 0 0.662 0.185 1.311 0.535 1.873 0 0.041 17.097 37.425 31.684 69.331 2.783 0.48 5.608 0.667 8.43 0.558l-34.227-75.793c-0.557-0.247-1.161-0.37-1.771-0.36-0.837 0.061-1.647 0.322-2.363 0.76s-1.317 1.04-1.753 1.757z" fill="#311D00"/> <path d="m409.26 388.44c0.621-0.369 1.137-0.891 1.496-1.518s0.55-1.335 0.554-2.058c2.698-30.553-8.971-71.003-20.787-92.783-0.72-0.6-1.596-0.982-2.526-1.101-0.93-0.12-1.874 0.029-2.722 0.429-0.703 0.292-1.317 0.765-1.779 1.369l-0.099 0.697v0.32c-1.089 0.378-2.217 0.636-3.362 0.771-16.564 3.28-72.906 10.16-88.363 9.766-4.751 0.038-9.5-0.181-14.227-0.656-11.734-1.328-17.769-4.748-26.183-11.308-7.568-7.084-22.91-22.96-25.592-26.518-1.254-1.468-3.493-1.058-4.625-0.156-0.886 0.653-1.477 1.631-1.643 2.719-0.166 1.089 0.107 2.199 0.758 3.086 6.109 6.692 21.279 21.148 21.426 21.32 13.703 14.883 27.495 17.967 39.91 18.664 8.725 0.606 19.95 0.082 17.974 0.205 22.854-1.378 61.738-6.815 83.025-10.66 1.591-0.361 2.895-0.607 2.895-0.607h0.738c1.017 0.467 1.976 3.559 2.033 3.788v-0.115c2.214 5.576 6.634 20.049 6.683 20.197 0 0 1.222 4.436 0.738 4.92-0.746 0.754-6.65 2.157-6.65 2.157-10.922 2.911-56.088 9.602-80.516 10.963-0.172 0.041-6.56 1.033-20.418-1.041l-90.667-14.949-5.035 6.896c-0.393 0 93.775 15.334 93.775 15.334 6.654 1.1 13.388 1.635 20.131 1.599l2.731-0.074c3.411-0.147 5.346-0.442 5.396-0.442 25.247-2.559 57.227-6.643 77.9-11.563 1.365-0.279 2.755-0.422 4.149-0.426 0.595 0.06 1.179 0.21 1.73 0.443 0.596 0.754 0.986 1.649 1.132 2.599 3.69 13.317 4.469 33.333 4.51 34.276 0 0 0.073 4.15-0.624 5.74-0.861 0.927-3.927 1.452-3.927 1.452-33.522 8.577-72.636 2.525-87.814-29.988-3.28 0.279-8.274 0.181-8.274 0.181 0.413 1.198 0.923 2.361 1.525 3.477 9.783 21.656 27.388 30.282 42.288 34.218 16.4 4.338 35.883 4.059 54.062-0.615 2.944-0.984 2.837-1.205 2.837-1.205 0.843 0.408 1.762 0.637 2.698 0.671s1.869-0.128 2.739-0.474z" fill="#311D00"/> <path d="m202.95 293.81c-0.697 1.221-2.288 3.862-5.568 8.47-1.435 2.017-1.943 3.854-1.509 5.461 0.648 2.378 3.206 3.567 3.231 3.576h0.049l15.49 9.503 1.812 1.083 4.986 3.083c3.673 2.46 8.077 0.467 10.381-2.608 2.017-2.738 2.812-6.658-1.337-10.602 0 0-0.721-0.951-4.297-2.944-3.337-1.845-14.899-8.84-20.393-12.3 0.033 0.09-2.132-1.173-2.845-2.722zm5.559 15.686c0.492-1.345 1.501-3.682 5.822-3.977h0.074c1.716-0.121 3.42 0.36 4.819 1.362 1.398 1.002 2.403 2.46 2.84 4.124 1.14-0.107 2.289 0.016 3.381 0.361 1.091 0.345 2.103 0.905 2.974 1.648 4.329 4.256 1.361 8.118 1.336 8.2-0.024 0.082-3.624 4.928-10.094 1.025-0.894-0.542-1.633-1.304-2.148-2.214-0.313-0.551-0.587-1.124-0.82-1.714-5.527 0.82-7.626-3.28-7.651-3.329-0.468-0.826-0.758-1.741-0.849-2.686-0.092-0.945 0.016-1.899 0.316-2.8z" fill="#311D00"/> <path d="m234.48 304.68c-3.239-2.46-10.726-7.38-16.4-11.046l-1.337 1.296s12.628 8.413 15.867 10.586c3.698 2.501 5.142 5.674 4.559 8.856-0.024 0 3.108-5.256-2.689-9.692z" fill="#311D00"/> <path d="m206.81 295.18c5.453 3.411 23.215 13.875 23.215 13.875s4.797 3.05 5.01 6.92c1.451-4.1-0.992-7.183-3.469-8.962l-16.531-11.07c-3.091 0.82-9.627-2.583-9.389-6.847-1.632 1.394-1.952 4.1 1.164 6.084z" fill="#311D00"/> <path d="m220.37 315.62c0.713 3.788 3.1 5.469 7.339 4.92l0.886-0.148c2.46-3.567-1.353-8.429-6.216-8.282-0.214 1.378-0.929 2.628-2.009 3.51z" fill="#311D00"/> <path d="m217.56 316.89c0.19 1.047 0.626 2.035 1.272 2.882s1.483 1.529 2.443 1.989c0.96 0.461 2.016 0.688 3.081 0.662 1.064-0.026 2.108-0.303 3.044-0.81-2.394 0.377-7.38 0.229-8.118-5.453-3.6 1.328-10.004 0.303-9.438-6.716-1.935 5.182 3.19 8.823 7.716 7.446z" fill="#311D00"/> <path d="m410.01 288.86c-5.298 1.444-10.668 2.613-16.088 3.501 1.755 3.403 2.173 4.781 2.78 6.118 1.766-0.216 3.52-0.52 5.256-0.911 4.617-0.869 9.225-1.951 11.529-2.673l0.927-0.197c0.803-0.126 1.531-0.548 2.042-1.181s0.768-1.434 0.721-2.246c-0.062-0.812-0.411-1.575-0.983-2.155-0.571-0.579-1.33-0.937-2.141-1.01-1.362 0.169-2.711 0.421-4.043 0.754z" fill="#311D00"/> <path d="m420.11 320.55c-3.657 0.82-14.596 2.952-14.596 2.952l0.697 1.968c2.952-0.279 15.727-3.518 15.727-3.518 2.46 0 2.518 1.591 2.518 1.591-4.92 1.836-17.491 4.46-17.491 4.46 0.558 2.378 1.763 7.02 1.763 7.02 14.9-2.665 18.122-4.305 18.122-4.305 4.346-1.829 2.665-6.929 2.665-6.929-1.681-5.904-9.405-3.239-9.405-3.239z" fill="#311D00"/> <path d="m425.07 295.81c-2.714-10.209-8.61-8.946-8.61-8.946 3.239 0.992 6.002 6.429 0.098 9.66 2.657 6.901 4.8 13.988 6.413 21.205 10.857-0.074 11.422 12.939 5.059 15.006 0 0 4.1 20.787 5.24 32.226 0.079 1.278 0.093 2.558 0.041 3.838 4.502 0.926 7.118 4.1 7.118 5.74 2.189-13.104-5.478-51.037-15.359-78.729z" fill="#311D00"/> <path d="m362.12 288.85 2.395 5.485s11.693-1.279 16.752-2.542c0.059-0.573 0.314-1.109 0.722-1.516 0.408-0.408 0.943-0.663 1.517-0.722-7.133 0.553-14.305 0.317-21.386-0.705z" fill="#311D00"/> <path d="m201.02 315.2s-5.92-3.559-6.667-4.977l-11.791 18.04c-0.289 0.355-0.47 0.786-0.521 1.241s0.03 0.915 0.234 1.325c0.445 0.769 1.073 1.415 1.829 1.881 0.755 0.467 1.614 0.739 2.5 0.793 0.588 0.07 1.184-0.022 1.722-0.268s0.998-0.636 1.329-1.126c0 0 8.88-13.235 11.365-16.909z" fill="#311D00"/> <path d="m254.81 223.61c0.82 0.443 0.919 0.615 1.862 2.28 0.59 1.041 2.238 4.608 2.238 4.608 2.985-2.263 5.822-3.878 11.144-5.805 16.917-6.872 37.146-10.923 55.006-14.49l1.361-0.27c2.911-0.468 3.69-2.247 3.469-3.764-0.243-0.994-0.854-1.859-1.709-2.42-0.855-0.562-1.891-0.778-2.9-0.606-22.312 3.6-48.117 10.267-60.557 15.474-3.457 1.343-6.777 3.015-9.914 4.993z" fill="#311D00"/> <path d="m208.55 288.33-0.057 0.065c-1.05 1.263 0.696 3.067 1.065 3.42 1.591 1.541 4.15 2.526 5.363 1.558l9.02-14.325c-2.127-1.939-4.08-4.06-5.838-6.339-7.437 12.062-9.397 15.318-9.528 15.58l-0.025 0.041z" fill="#311D00"/> <path d="m345.79 201.38s1.812 4.223 1.812 7.167c3.526 0.336 10.406 0.992 13.038 1.566 2.903 0 3.411-1.927 3.493-2.771 0.148-1.575-0.729-3.477-2.205-3.69h-0.181c-2.074-0.738-12.054-1.894-15.957-2.272z" fill="#311D00"/> <path d="m217.37 313.35c-0.626 0.023-1.251-0.069-1.845-0.27 7e-3 0.717 0.086 1.431 0.238 2.132 3.395 0.516 5.059-1.64 5.256-3.215h-0.27c0.114-2.173-1.64-4.288-4.051-5.059-0.766 1.528-1.173 3.211-1.189 4.92 0.604 0.299 1.256 0.49 1.927 0.566-0.039 0.307-0.061 0.617-0.066 0.926z" fill="#311D00"/> <path d="m213.32 314.47c0.238 0.114 0.361 0.295 0.582 0.369-0.185-0.807-0.27-1.633-0.254-2.46-0.426-0.296-0.763-0.41-0.976-0.82v-1.173c0.336 0.353 0.599 0.361 0.935 0.64-3e-3 -1.502 0.357-2.982 1.05-4.314-0.652-0.066-1.311 0.011-1.93 0.226s-1.184 0.564-1.654 1.021c0 0-1.123 4.616 2.247 6.511z" fill="#311D00"/> <path d="m354.39 200.18-9.84-22.304-2.239 0.902c-0.516-1.009-1.476-1.394-3.067-1.55-81.86-146.27-334.06-65.198-273.38 128.39 3.8043 12.088 8.6694 23.816 14.539 35.047-0.763 3.083-0.763 6.306 0 9.389 1.64 6.199 3.0176 10.004 8.0114 20.984-2.0418 7.446 4.92 18.384 21.804 15.137 20.066-3.108 30.554-10.373 32.989-12.226 0.672 0.467 1.345 0.959 2.017 1.451 35.58 27.757 93.775 29.971 115.28-2.886 8.561 1.746 19.253 0.311 19.253 0.311 11.136-0.738 20.107-3.714 27.11-8.339-0.82-1.386-1.681-2.796-2.46-4.272-9.02 6.084-21.944 9.323-40.131 7.847l-1.156-0.156c3.056-6.254 4.893-13.033 5.412-19.975-1.345-0.221-2.731-0.467-4.166-0.688 0.264 5.385-0.495 10.772-2.239 15.875-1.076 3.081-2.581 5.996-4.469 8.659h0.041c-4.288 6.312-10.105 11.435-16.908 14.891-26.929 14.047-68.749 5.838-93.045-12.251-13.94-10.406-22.091-10.094-35.424-6.068-14.76 4.478-14.178-4.1-14.178-4.1-12.374-17.548-23.731-36.334-33.456-71.758-23.313-93.34 29.118-158.8 96.276-180.34 69.364-11.808 122.77 27.174 145.05 64.886-0.658 0.353-1.22 0.859-1.64 1.476-2.214 3.461 0.607 9.233 0.82 9.75 0 0 4.1 11.718 5.346 15.408l2.46-0.468-6.035-16.752c-2.394-5.658 0.287-7.757 0.287-7.757-0.713 2.099-0.131 4.518 0.271 5.789 0.779 2.46 3.419 9.733 5.608 15.317 0.427 1.099 0.82 2.149 1.165 3.157 0.648-0.131 1.295-0.27 1.968-0.377-1.878-5.641-4.453-12.234-5.232-14.432-0.672-1.828-0.984-2.525-1.837-5.477-1.139-4.002 0.427-4.1 2.124-4.223 0.968-0.074 3.854 0 4.609 0 1.746-0.943 5.485-2.797 7.716-3.92-26.896-45.469-80.811-75.866-151.5-65.534 55.76-13.555 119.08 2.509 157.19 56.809 2.009 3.379 3.731 5.24 6.765 11.308h-1.361c-2.124-3.001-4.273-3.961-6.888-4.01-0.14 0-5.216 0-4.568 5.15 0.234 1.519 0.669 3 1.296 4.403l3.78 7.962 1.009 2.124 3.64 7.38s2.706 5.387 2.862 8.249l9.799 0.181s0.156-2.993-1.943-8.34c-1.525-3.845-6.085-17.941-7.585-20.754-0.019-0.048-0.041-0.094-0.066-0.139 1.176-1e-3 2.35 0.098 3.51 0.295 1.927 4.92 4.723 13.309 6.871 19.926l0.82 0.041 1.698 0.139s0-0.065-0.041-0.114c0.869 0.041 4.239 0.336 5.453 0.582zm-272.24 143.72c6.642 12.194 12.472 19.934 14.268 21.763 0.0656 0.295 0.1312 0.582 0.1968 0.82-0.1312 1.771 0.246 7.044 10.562 5.125-3.157 6.011-14.834 2.681-12.57-5.322-1.681-2.099-5.7974-8.782-5.7974-8.782-0.1968 0.041 0.1804 1.993 0.1558 1.853l3.8048 7.872c-1.845 11.718 14.965 12.595 16.195 4.01 0.049 0 0.065 0 0.09-0.049 0.869-0.156 0.894 0 1.476-0.336-0.738 3.509-2.394 5.436-4.387 6.445-3.616 1.812-4.674 5.026 0.82 4.625 5.494-0.402 15.432-1.968 27.126-7.651l2.46-1.337c-4.92-3.116-10.127-3.624-13.686-3.895-2.772-0.18-7.224 0.558-10.447 1.206l0.607-0.173c13.399-4.428 21.648-1.64 28.29 2.592-0.402 0.27-0.894 0.623-1.361 0.959-5.929 4.272-19.82 9.438-32.161 10.603-12.554 2.033-19.549-6.773-17.113-13.489l-0.697-1.698c-0.697-1.631-8.733-18.023-7.831-25.141zm255.46-152.11c0.893 3.895-1.927 5.994-4.724 2.772-1.039-1.212-1.792-2.641-2.205-4.182l-0.091-0.246c-0.286-1.216-0.369-2.472-0.246-3.715-1.283-1.144-2.319-2.54-3.042-4.1-1.64-4.92 0-6.019 0.738-6.281 2.706-0.672 6.486 3.354 6.216 9.389 1.5 1.517 2.591 2.919 3.354 6.363z" fill="#311D00"/> <path d="m337.61 191.79c-0.763-3.444-1.854-4.854-3.354-6.355 0.27-6.035-3.51-10.061-6.216-9.389-0.738 0.263-2.394 1.386-0.738 6.282 0.723 1.56 1.759 2.955 3.043 4.1-0.124 1.243-0.041 2.498 0.245 3.714l0.091 0.246c0.413 1.542 1.166 2.971 2.205 4.182 2.797 3.215 5.617 1.115 4.724-2.78zm-6.692-6.797c-1.426-0.919-3.599-4.051-3.28-6.601 3.354 0.049 4.363 4.92 3.28 6.601zm3.469 9.102c-1.687-1.63-2.667-3.855-2.731-6.2 2.665 0.542 4.273 3.846 2.731 6.2z" fill="#fff"/> </g> <defs> <clipPath id="a"> <rect transform="translate(45 91)" width="410" height="316.94" fill="#fff"/> </clipPath> </defs> </svg>