<?xml version="1.0" encoding="UTF-8"?> <svg viewBox="0 0 500 500" xmlns="http://www.w3.org/2000/svg"> <g fill="none"> <path d="m0 0h500v500h-500z"/> <path d="m489.05 196.69h-181.66l-57.867-173.05-57.872 173.05h-181.66l148.83 106.55-57.135 173.15 147.83-105.6 147.84 105.39-57.152-172.94 148.84-106.56" fill="#FFFFFE"/> <path d="m249.53 44.232-53.226 158.92h-166.2l136.35 97.609-52.44 158.91 135.54-96.802 135.5 96.802-52.462-158.91 136.36-97.609h-166.2l-53.22-158.92" fill="#024"/> <path d="m249.53 88.031-42.8 128.72h-134.63l110.45 79.066-42.476 128.71 109.78-78.401 109.12 78.401-42.476-128.71 110.46-79.071h-134.63l-42.795-128.72" fill="#FFFFFE"/> <path d="m249.53 125.89-33.64 101.69h-106.34l87.246 62.464-33.563 101.69 86.739-61.941 85.854 61.941-33.568-101.68 87.25-62.469h-106.34l-33.635-101.69" fill="#024"/> </g> </svg>