<?xml version="1.0" encoding="UTF-8"?> <svg viewBox="0 0 500 500" xmlns="http://www.w3.org/2000/svg"> <g fill="none"> <path d="m0 0h500v500h-500z"/> <path d="m248.69 102.26c-121.25 0.011-223.69 67.942-223.69 148.35 0 83.703 96.171 146.82 223.69 146.82 74.424 0 144.98-26.149 188.76-69.942 24.094-24.102 37.344-51.413 37.318-76.878-0.032-39.647-23.362-76.883-65.691-104.86-42.44-28.048-99.392-43.488-160.38-43.488" fill="#FFB612"/> <path d="m92.26 348.93c-38.902-25.938-60.332-60.865-60.332-98.317 0-75.331 101.29-141.42 216.76-141.43 120.78-5e-3 219.08 63.438 219.15 141.43 0.021 23.628-12.513 49.187-35.296 71.984-42.497 42.52-111.23 67.911-183.86 67.911-60.68 0-116.24-14.771-156.43-41.578" fill="#203731"/> <path d="m345.73 211.76c-17.414-25.928-55.542-43.909-100.44-43.909-61.622 0-111.59 33.884-111.59 75.678 0 41.788 35.27 78.483 111.59 78.441 45.83-0.021 82.679-19.808 99.892-45.798l-130.18 0.226-0.4-33.805 225.97-0.079c0.305 2.71 0.621 5.352 0.621 8.099 0 65.069-86.19 117.81-192.5 117.81-106.31 0-192.49-52.745-192.49-117.81s91.301-119.81 192.49-120.2c84.226-0.321 155.82 34.468 181.93 81.298l-84.895 0.053" fill="#FFFFFE"/> </g> </svg>