<?xml version="1.0" encoding="UTF-8"?> <svg viewBox="0 0 500 500" xmlns="http://www.w3.org/2000/svg"> <g fill="none"> <path d="m0 0h500v500h-500z"/> <path d="m347.12 127.14c87.622 66.727 20.941 76.716-47.487 86.461 0 0-28.875-7.971-78.911-32.843-113.48-56.4-77.752-82.976 11.435-99.056-142.74-62.228-261.71 46.116-130.47 151.47l-36.014 25.762c29.583 18.148 90.878 56.218 81.973 114.52l-30.422 21.758 92.907 42.13 73.312-33.244c0.532-32.286 58.195-49.055 83.006-114.73 136.58-31.358 101.79-151.58-19.332-162.22" fill="#FFFFFE"/> <path d="m241.48 326.46-26.339-29.979-30.24 4.512 13.977-23.042-26.333-29.998 34.981 15.754 13.946-23.048 7.627 32.768 34.974 15.729-30.253 4.524 7.659 32.78zm43.209-106.71c-171.45-66.263-182.8-120.62-75.785-139.41-133.84-36.39-211.9 60.673-79.48 153.24l-35.532 25.417c37.73 25.223 77.714 62.584 64.15 121.38l-17.904 12.79 68.765 31.195c63.994-70.142 97.465-138.29 75.785-204.6z" fill="#03202F"/> <path d="m371.72 137.58c58.84 46.097 17.985 75.55-53.749 83.552 18.148 76.552-37.498 146.67-96.413 200.96l54.018-24.49c3.995-31.113 58.802-47.294 84.772-116.33 121.98-27.234 102.07-114.84 11.372-143.69" fill="#A71930"/> </g> </svg>