<?xml version="1.0" encoding="UTF-8"?> <svg viewBox="0 0 500 500" xmlns="http://www.w3.org/2000/svg"> <defs> <linearGradient id="b" x1="49.997%" x2="49.997%" y1="-.001%" y2="100%"> <stop stop-color="#FFD100" offset=".217"/> <stop stop-color="#FFD724" offset=".296"/> <stop stop-color="#FFE87F" offset=".474"/> <stop stop-color="#FFF" offset=".707"/> </linearGradient> <linearGradient id="a" y1="50%" y2="50%"> <stop stop-color="#FFA300" offset="0"/> <stop stop-color="#FFA800" offset=".134"/> <stop stop-color="#FFB600" offset=".289"/> <stop stop-color="#FFCD00" offset=".453"/> <stop stop-color="#FFD100" offset=".478"/> </linearGradient> </defs> <g fill="none" fill-rule="evenodd"> <polygon points="0 0 500 0 500 500 0 500"/> <g transform="translate(20 84.996)" fill-rule="nonzero"> <path d="m403.85 56.08c-62.97-62.99-161.07-74.213-236.64-27.073-20.834 13.821-38.876 31.444-53.184 51.946-0.050189 0.060432-0.10243 0.11882-0.15364 0.17925h-39.461l-74.414 168.37h96.542c13.961 26.025 35.115 47.483 60.938 61.815 49.258 27.108 109.45 24.843 156.53-5.8906 5.4482-3.567 7.9254-10.275 6.103-16.527s-7.5163-10.578-14.028-10.659c-1.4728 0.001879-2.9374 0.21963-4.347 0.64632-9.6226 2.8896-19.617 4.3528-29.664 4.3429-28.91 0.06896-56.475-12.201-75.772-33.727h90.153l15.483-21.573 60.094 0.006146s-1.8293 4.6502-2.8331 6.9261l-6.4529 14.647h98.354l2.0936-7.6964c18.065-66.279-0.76403-137.16-49.341-185.73zm39.27 182.99h-74.374c3.0822-6.9888 5.628-14.202 7.6155-21.577h-79.862l-15.401 21.577h-71.59l107.03-149.94-0.012292-0.0051213c-14.107-5.7644-29.214-8.6882-44.453-8.6039-1.9454 0-3.8775 0.049506-5.7963 0.14852-58.066 2.9253-104.37 49.542-104.37 106.42-4.6e-4 3.6952 0.19614 7.3878 0.58896 11.062h63.228l-18.828 26.492c-5.9408 7.9893-13.816 14.421-25.822 14.421h-5.1541c18.877 32.552 54.907 54.594 96.161 54.594 11.067 0.010873 22.075-1.6014 32.674-4.7854 0.43147-0.13292 0.88008-0.20193 1.3316-0.20485 1.8966 0.078391 3.5256 1.3726 4.0306 3.2024 0.50508 1.8298-0.22932 3.7764-1.8172 4.8166-34.214 22.336-76.405 28.817-115.75 17.779-39.341-11.038-72.002-38.52-89.603-75.395h-86.931l65.19-147.49h37.667c26.099-33.91 66.13-54.203 108.91-55.208 1.0243-0.02151 2.0598-0.032777 3.0831-0.032777 60.286 0 110.85 36.073 131.32 89.138l-37.066 51.931h56.437c-0.23016-50.35-25.46-97.296-67.324-125.27-41.864-27.975-94.89-33.323-141.5-14.272 63.196-39.391 144.07-36.059 203.81 8.3982 59.74 44.457 86.157 120.97 66.573 192.81zm-209.78-51.356h-60.985c0-0.20486-0.015364-0.41483-0.015364-0.62378 0-51.164 41.492-93.334 94.471-96.002 1.7638-0.090136 3.5348-0.13527 5.2627-0.13527 9.3742-0.01001 18.71 1.1996 27.772 3.5983l-66.505 93.163zm132.23-48.864c2.6559 9.1696 4.3685 18.586 5.1111 28.104h-25.163l20.052-28.104z" fill="#003594"/> <path d="m172.74 37.859c57.15-23.362 122.76-9.7056 165.84 34.52s55.015 110.17 30.164 166.69h74.374c19.603-71.85-6.8085-148.37-66.556-192.83-59.747-44.462-140.63-47.786-203.83-8.3753" fill="url(#b)"/> <path d="m362.17 125.49-14.316 20.061c-13.725-14.111-32.58-22.063-52.265-22.042-1.2291 0-2.4483 0.030728-3.6577 0.092184l24.607-34.477c18.352 7.549 34.178 20.161 45.632 36.366zm14.188 92.001c3.4609-12.866 5.2091-26.133 5.1992-39.457v-0.64222h-15.477c3.5668 13.153 3.3894 27.041-0.51214 40.098l10.79 0.001024z" fill="#D7D2CB"/> <path d="m308.3 296.69c-43.848 28.617-99.902 30.727-145.78 5.486-11.321-14.27-19.679-30.657-24.582-48.2 15.842-0.73748 38.785 0.63198 55.744 7.9207 20.958 20.456 49.112 31.863 78.398 31.765 11.067 0.010872 22.075-1.6014 32.674-4.7854 0.43149-0.13284 0.88009-0.20186 1.3316-0.20485 1.8963 0.079214 3.5244 1.3737 4.029 3.2034 0.50455 1.8296-0.22996 3.7757-1.8176 4.8157zm-145.8-98.535c-0.39367-3.6742-0.59062-7.3669-0.58998-11.062 0-56.885 46.311-103.5 104.38-106.42-67.32 2.7389-122.45 52.915-131.86 117.49l28.072-0.006145z" fill="#FFD100"/> <path d="m175.91 239.07h-41.233c0.80101 5.0283 1.8868 10.007 3.2521 14.912 15.842-0.73747 38.785 0.63198 55.744 7.9207-6.9217-6.7768-12.897-14.457-17.763-22.833z" fill="#FFA300"/> <path d="m102.95 239.07c5.1414 10.747 11.616 20.804 19.272 29.932 3.9986-6.1589 9.3772-11.302 15.709-15.02-1.3653-4.9053-2.451-9.884-3.2521-14.912h-31.729z" fill="#FF8200"/> <path d="m316.53 89.121c-14.107-5.7644-29.214-8.6882-44.453-8.6039-1.9454 0-3.8775 0.049506-5.7963 0.14852-67.319 2.7389-122.45 52.915-131.86 117.49h-38.331l47.215-106.58h-24.428c26.099-33.91 66.13-54.203 108.91-55.208 1.0243-0.02151 2.0598-0.032777 3.0831-0.032777 60.286 0 110.85 36.073 131.32 89.138l-0.016389 0.023558c-11.456-16.209-27.287-28.825-45.645-36.374zm-178.6 164.86c-6.332 3.7184-11.711 8.861-15.709 15.02 11.272 13.449 24.933 24.698 40.294 33.18-11.321-14.27-19.679-30.657-24.582-48.2h-0.002049z" fill="url(#a)"/> <path d="m368.64 196.55c0 7.0933-1.0297 14.149-3.0605 20.945h-69.074l-15.401 21.576h-71.59l82.426-115.47c1.2121-0.059408 2.4313-0.090136 3.6577-0.092225 19.685-0.020657 38.54 7.9311 52.265 22.042l-22.734 31.847h40.959c1.6936 6.2423 2.5515 12.682 2.5515 19.15zm-287.42-104.97-65.19 147.49h165.05c12.005 0 19.885-6.4273 25.822-14.422l18.828-26.491h-129.63l47.215-106.58h-62.094z" fill="#FFF"/> </g> </g> </svg>