<?xml version="1.0" encoding="UTF-8"?> <svg viewBox="0 0 500 500" xmlns="http://www.w3.org/2000/svg"> <g fill="none" fill-rule="evenodd"> <polygon points="0 0 500 0 500 500 0 500"/> <g transform="translate(10 144)"> <path d="m478.72 211.52c-26.598-35.822-73.022-79.578-128.33-104.14l11.296 26.026c-47.03-23.686-99.308-40.689-158.57-40.42l12.63 13.674c-109.47 4.2876-173.69 58.571-215.74 104.86 0.98369-62.679 45.894-119.28 105.06-153.84l-12.178-11.304c44.034-30.477 105.79-39.028 157.92-33.008l-7.4119-13.373c172.68 12.832 245.81 141.7 235.33 211.52" fill="#FFF"/> <path d="m202.3 101.37-13.267-14.365c50.278-1.6719 101.11 5.8984 160.24 33.69l-10.893-25.1c44.515 17.246 93.837 49.439 135.19 99.372-3.6418-75.608-79.999-173.58-218.88-187.59l7.7224 13.931c-56.133-9.5364-119.2 0.38774-159.34 25.981l12.552 11.65c-60.418 32.402-100.11 83.944-108.62 136.03 49.866-52.084 114.7-88.058 195.3-93.598" fill="#0080C6"/> <path d="m451.9 154.38c-23.534-63.346-94.317-117.96-173.78-131.04l9.3332 16.633c-47.858-14.804-117.4-13.908-163.12 9.9466l13.113 12.172c-41.901 17.956-86.113 56.409-103.61 91.742 28.699-25.888 91.139-55.852 142.36-62.219l-12.728-13.782c49.229-9.7583 114.84-0.09974 161.62 18.893l-9.0739-20.909c34.45 7.0616 98.472 37.843 135.89 78.559" fill="#FFC20E"/> </g> </g> </svg>