<?xml version="1.0" encoding="UTF-8"?> <svg viewBox="0 0 500 500" xmlns="http://www.w3.org/2000/svg"> <g fill="none"> <path d="m0 0h500v500h-500z"/> <path d="m483.47 162.19c-60.229 14.202-62.86-20.625-153.44-27.011-121.92-8.597-224.38 44.44-306.26 51.236-17.788 1.477-15.481 16.258-2.698 18.767 30.86 7.191 62.704 6.277 91.85 2.375-0.979 2.345-1.962 5.958 1.294 8.727 11.543 9.797 57.947 10.636 78.319 9.465 6.917-0.394 21.683-1.787 21.683-1.787-4.211 0.399-10.791 13.212 3.122 16.82 85.984 24.036 126.44 62.85 172.88 123.98 18.872-2.408 36.643-25.081 29.066-42.388l3.765-9.289 13.901-6.428-3.984-31.001 21.191-9.965s33.003-88.56 34.936-95.009-2.067-9.331-5.627-8.492" fill="#FFFFFE"/> <path d="m244.89 174.37c-59.616 3.516-131.14 37.156-222.22 22.161 80.723-10.879 142.26-37.538 217.32-48.153l4.895 25.992zm6.425 34.781c-32.974 3.881-71.23 13.086-126.42 2.702 47.572-1.292 83.177-17.189 122.37-25.001l4.051 22.3z" fill="#C60C30"/> <path d="m254.83 208.79c24.166-2.593 45.48-1.771 68.713 12.373-48.455-5.249-72.18 8.265-102.38 11.269 106.7 27.955 145.76 87.692 172.22 120.8 18.494-7.846 19.494-23.89 14.783-29.617l4.761-10.191 0.219-6.545 12.749-5.954-4.034-31.714 23.872-9.763 31.629-86.446c-53.59 11.102-70.953-23.499-147.2-28.219-31.058-1.926-59.027-0.499-85.286 2.941l4.282 26.462c17.548-0.604 34.067 1.624 49.741 8.744-17.233-1.066-32.739 0.361-47.866 3.163l3.799 22.702" fill="#024"/> <path d="M337.144 281.731c28.839 20.164 43.652 42.505 58.683 62.061 7.644-3.172 10.043-12.029 7.526-15.159l-7.278-8.945 8.278.487 3.799-6.591-10.291-.608-11.594 2.089 11.758-8.039 8.951.524.332-5.089-9.144-4.372 3.143-3.432 16.914 1.053-4.862-37.609c-6.686-.814-12.308 2.685-14.737 12.339l-29.982-1.762c4.219-9.549 10.791-13.845 23.263-12.259-6.997-9.784-41.093-10.69-45.908 4.661l26.469 21.658 3.425 19.795-10.875-15.759c-9.778-8.454-20.048-14.378-27.868-5.043" fill="#B0B7BC"/> <path d="m425.86 184.74 2.13 18.889 21.297 7.98-19.977 4.997 1.971 25.467-17.275-21.519-25.831 6.075 15.96-18.561-13.161-17.412 22.048 7.556 12.838-13.472" fill="#FFFFFE"/> </g> </svg>