<?xml version="1.0" encoding="UTF-8"?> <svg viewBox="0 0 500 500" xmlns="http://www.w3.org/2000/svg"> <g fill="none" fill-rule="evenodd"> <polygon points="0 0 500 0 500 500 0 500"/> <g transform="translate(10 84)"> <path d="m279.2 24.913-23.361 24.485c38.267-15.9 121.71-43.198 121.71-43.198l-26.736 26.154c72.977-21.607 128.43-31.845 128.43-31.845s-16.07 37.398-40.077 74.848c4.6439-0.50117 34.957-4.0336 34.957-4.0336s-27.298 45.219-58.819 77.811l17.642 4.3893s-27.488 39.613-63.766 71.946c-52.17 46.492-79.015 39.35-79.015 39.35-38.728 28.049-69.768 13.835-69.768 13.835s13.41-33.845-0.44459-37.438c-12.489-3.2455-31.489 6.5193-33.861 10.436-2.4654 8.5401-12.849 30.228-23.575 43.355-20.568 25.164-43.375 35.45-43.375 35.45s-17.965-15.33-18.083-41.427c0 0-12.339 13.071-32.427 17.343-14.061 2.9909-33.251 0.5618-52.91-15.852-13.2-11.018-15.722-48.044-15.722-48.044s12.404-23.696 36.327-44.463c-5.2946-4.5429-8.5401-10.258-9.5586-13.786 63.588-27.754 63.632-54.248 114.19-86.456 49.806-31.731 81.105-46.322 138.24-72.86" fill="#FFF"/> <path d="m248.22 47.389-19.978 20.94c39.455-17.464 122.77-45.829 122.77-45.829l-24.181 23.656c85.429-26.449 139.61-35.409 139.61-35.409s-17.707 39.463-41.27 72.985c11.41-1.0953 35.207-3.8598 35.207-3.8598s-23.798 39.871-58.968 73.644c3.9083 0.57392 19.869 4.2155 19.869 4.2155s-21.211 31.473-58.075 63.754c-47.057 41.201-67.933 36.323-67.933 36.323s0.45267-1.6086 0.40821-4.1104c-0.032334-1.3823-0.32738-2.6352-0.3395-2.7362-36.226 34.092-66.405 22.589-66.405 22.589s13.398-32.439-7.1538-38.986c-15.92-5.0683-40.308 7.9621-42.252 14.942-2.1138 7.5903-12.226 28.656-22.254 40.999-17.395 21.417-36.65 31.19-36.65 31.19s-17.505-13.467-11.434-52.882c1.3257-8.5886-0.37588-11.943-1.3136-13.386-2.8736-4.3974-25.269 0.40013-30.733 12.893-3.8558 8.823 18.398 16.28 18.398 16.28s-10.27 11.329-28.219 14.999c-11.288 2.3078-28.769 1.5722-47.122-14.32-10.86-9.401-13.111-41.213-13.111-41.213s13.414-24.574 39.544-45.796c-5.1572-3.3748-9.0736-9.0938-10.064-11.341 52.651-22.678 59.87-54.745 119.31-90.578 27.702-16.7 56.879-33.134 92.337-48.961" fill="#004C54"/> <path d="m447.24 24.78s-11.147 32.77-34.827 66.037c14.304-1.0064 29.723-1.8471 29.723-1.8471s-16.579 33.348-54.013 69.065c2.1098 0.4365 10.759 2.0006 15.577 3.9972-18.087 29.335-72.144 86.937-102.36 89.305-0.3395-5.0521-2.2997-9.3606-4.6682-12.331-11.337 20.722-45.954 33.441-60.326 30.115 17.452-63.932-56.588-39.572-62.266-22.023-14.74 45.57-52.158 67.011-52.158 67.011s-11.959-13.625-6.8305-44.309c3.783-22.621-10.529-21.918-10.529-21.918-5.7069-0.26271-27.362 2.3482-34.193 17.46-5.5088 12.17 13.774 20.714 13.774 20.714s-27.843 22.229-60.056-5.3229c-7.9015-6.7577-10.84-35.292-10.84-35.292 15.492-25.681 35.91-42.013 44.37-48.084-8.9685-3.4395-11.761-8.0955-11.761-8.0955 43.25-19.833 60.213-52.797 97.033-77.293 40.575-26.994 71.635-40.251 71.635-40.251l-11.721 14.752s9.8132-4.1953 14.093-6.2929c38.639-18.964 104.11-39.629 104.11-39.629l-20.415 19.776s33.845-11.592 76.489-20.702c22.71-4.8541 70.16-14.841 70.16-14.841zm-310.82 149.21c-0.67092 0.83663-1.4227 1.7905-2.2431 2.8009 2.425 0.028292 4.5671 0.97809 5.6786 2.8332 1.9683 3.2819 0.012126 8.0591-4.3731 10.678-4.3852 2.615-9.5344 2.0774-11.507-1.2085-0.30313-0.50117-0.485-1.0468-0.60626-1.6086-0.83259 0.59009-1.6935 1.1357-2.5826 1.6328 0.18592 0.63859 0.44863 1.2651 0.79621 1.8471 2.7888 4.6358 9.8981 5.5048 15.888 1.9279 5.9898-3.5688 8.5846-10.221 5.7998-14.865-1.4106-2.3442-3.9326-3.7103-6.8507-4.0377z" fill="#000"/> <path d="m295.89 55.978s-9.8537 7.0528-16.664 11.571c-9.2393 6.1313-17.42 12.056-17.42 12.056s0.35971-0.16167 1.0266-0.44459c77.568-24.311 141.64-16.708 141.64-16.708-41.933 4.0417-75.842 12.012-93.836 20.233 0 0 24.844-4.268 37.475-4.268 12.355 0 22.46 1.2004 22.46 1.2004-79.035 12.331-121.55 35.175-131.91 41.326-4.3125 1.8349-6.5718 2.9787-6.5718 2.9787s12.889-4.0377 29.226-8.0874c28.749-4.4095 70.819-2.037 111.41 10.011 0 0-28.142-1.4914-40.441-1.2166-36.727 0.81642-74.577 15.585-74.577 15.585 23.907-6.0262 50.113-1.5884 50.113-1.5884-10.189 0.58605-35.244 7.2791-47.817 12.457-18.115 7.461-36.424 18.087-49.765 27.9-5.3957 3.201-8.2814 5.3108-8.2814 5.3108l0.014565-0.007791c0.35391-0.18891 7.1393-3.7887 18.355-8.116 19.643-6.6082 52.91-12.505 89.863-0.092959-56.952-11.345-101.94 15.33-101.94 15.33 32.616-10.658 53.302-0.6103 53.302-0.6103-39.536-4.8056-69.016 16.001-79.165 28.979 5.719-11.547 14.158-18.992 14.158-18.992-2.033 1.0023-4.0417 2.1542-6.0302 3.4274-8.144 4.6884-41.496 21.627-70.459 3.6335-1.7986-1.1155-3.3102-2.1583-4.6197-3.1364 9.6314 5.044 25.523 5.4725 32.119-1.0185-23.094 5.9575-27.197-4.5873-27.69-11.147-1.4914 0.28292-3.8881 0.10104-5.6786-0.31525 0 0 3.779-1.6046 5.6543-2.5746 0.32334-0.16571 0.63455-0.35567 0.95384-0.53754 0.18592 0.63859 0.44863 1.2651 0.79621 1.8471 2.7888 4.6358 9.8981 5.5048 15.888 1.9279 5.9898-3.5688 8.5846-10.221 5.7998-14.865-1.4106-2.3442-3.9326-3.7103-6.8507-4.0377 2.0774-2.4129 6.0747-7.7479 12.246-12.186-4.5429 5.4482-5.9938 9.1342-6.1676 9.599 2.7847 0.4365 5.2259 1.6288 6.402 3.8396 2.3159 4.3327 0.73963 7.7358-0.10104 9.4778-0.004042-0.004042-0.008084-0.004042-0.012126-0.004042-1.5439 3.2657-4.4135 6.4869-8.2774 8.9241-5.23 3.3021-10.961 4.3367-15.177 3.1485 0 0 0.7558 1.3782 1.9804 2.1906 2.037 1.3621 8.0551 3.3465 16.757-0.58605 3.2253-1.4591 5.6463-3.1161 7.4933-4.7975 6.5435-4.9107 7.2548-11.191 9.5909-16.704 5.5088-13.018 16.886-24.291 30.143-28.971-12.602 1.5358-28.013 12.897-27.564 7.8247 0.21017-2.3604 6.9679-24.852 48.363-42.062 0.7558-0.27484 1.5035-0.54967 2.2795-0.82046 0 0-20.099 3.1121-50.388 21.17-11.911 7.1053-22.613 16.927-28.029 24.388 0.23846-4.9026 2.8858-9.6556 4.4944-13.402-11.272 7.2589-8.4633 17.363-16.955 27.213-3.7184 3.9649-7.6348 7.7601-11.79 10.46-24.004 15.633-47.7 5.9049-47.7 5.9049 32.168-17.387 31.206-21.304 52.401-43.78 23.761-25.188 38.36-38.162 78.348-57.772-2.615 3.3708-13.422 12.853-15.755 15.548 0 0 8.0228-4.2923 23.216-11.503 53.884-25.584 93.666-35.11 93.666-35.11zm-167.7 127.45c-0.11317 1.8551 0.31121 4.2114 2.5948 5.9373 0 0-2.6029 0.21421-4.2963-1.0347-0.96192-0.71134-1.3742-1.552-1.5439-2.037 1.1398-0.90534 2.2189-1.8713 3.2455-2.8656z" fill="#FFF"/> <path d="m99.155 200.37s29.298 37.014 75.984 18.616c-2.1461 3.7911-3.0919 7.9783-4.4903 12.917-10.783 50.157-47.118 71.89-47.118 71.89-6.6163-15.019-2.9141-29.533-1.7864-34.969 2.5624-12.384-3.3829-21.603-3.3829-21.603 23.903 1.1357 0.46884 30.911 9.3484 43.877 16.062-9.3525 25.75-42.252 28.142-54.001 0.16571-0.44054-2.2674-2.1704-4.2357-2.8939-23.078-7.4206-61.773-1.067-75.762 7.3963-43.812 26.514-2.8251 44.701-2.8251 44.701s-26.978 9.017-42.422-15.375c-3.7871-6.4667-4.7409-18.26-5.5695-27.475 16.062-27.188 41.31-37.996 48.323-42.83 6.0828 1.649 17.104 2.4089 25.794-0.25058zm92.474 24.602s20.277-19.78 65.33-11.822c17.278 3.0515 26.833 12.17 26.833 12.17-7.7035 13.398-22.937 19.95-22.937 19.95s0.97001-21.32-32.871-26.76c-22.19-3.5676-35.538 5.8667-36.319 6.4359zm28.696-48.799c29.573-11.422 89.948-27.928 144.66-0.50521-3.2536 6.98-11.487 17.351-24.622 30.28-12.509 12.307-20.819 15.852-22.985 17.028-0.34354 0.18592-0.52542 0.27484-0.52542 0.27484-4.4661-16.898-41.634-32.984-95.117-19.715-22.086 5.4761-31.934 12.29-40.922 20.659l-0.59805 0.56019c0.65476-1.7298 1.3903-3.3869 2.1704-4.9753 10.149-12.978 39.629-33.785 79.165-28.979 0 0-20.685-10.048-53.302 0.6103 0 0 44.992-26.675 101.94-15.33-36.953-12.412-70.22-6.5152-89.863 0.092959zm-132.19 31.679c-5.816 3.0151-10.165 5.3593-10.165 5.3593-3.4354 5.1491 3.7952 4.1225 7.1417 3.1283 2.712-0.80834 14.926-4.3569 14.926-4.3569-6.8022-0.65071-9.401-2.0815-11.903-4.1306zm123.96-94.167c-41.395 17.21-48.153 39.702-48.363 42.062-0.44863 5.0723 14.962-6.2889 27.564-7.8247-13.257 4.6803-24.634 15.953-30.143 28.971-2.3361 5.5129-3.0474 11.794-9.5909 16.704 5.516-5.0156 5.7236-10.196 5.7309-10.678l2.26e-4 -0.036454s-3.0434 1.8349-5.6422 2.1178c-0.85684 0.092959-1.8753-0.052542-2.8534-0.27888 1.3216-2.5867 1.2974-4.4257 1.3216-4.9309 4.0215-9.1747 14.061-17.674 14.061-17.674s-7.4246 4.4176-8.5361 0.14146c-2.9504-11.385 16.995-33.873 54.931-48.027 0.080834-0.032334 1.0953-0.39609 1.5197-0.54563zm80.191-4.2519c47.373-7.2872 112.8-0.26271 112.8-0.26271s-3.0272 9.6233-17.25 25.22c-13.41 14.716-18.446 18.592-18.446 18.592-77.071-16.421-137.8 13.342-159.16 26.004 13.342-9.8132 31.651-20.439 49.765-27.9 12.574-5.1774 37.628-11.87 47.817-12.457 0 0-26.206-4.4378-50.113 1.5884 0 0 37.85-14.768 74.577-15.585 12.299-0.27484 40.441 1.2166 40.441 1.2166-40.591-12.048-82.661-14.421-111.41-10.011 9.7647-2.4129 20.758-4.8379 30.976-6.4061zm121.45-61.757s-8.043 24.978-28.526 44.766c-14.368 1.4308-50.048 2.9424-80.757 9.0251-32.556 6.4505-55.294 15.031-65.795 19.481 10.363-6.1515 52.873-28.995 131.91-41.326 0 0-10.104-1.2004-22.46-1.2004-12.63 0-37.475 4.268-37.475 4.268 17.994-8.2208 51.903-16.191 93.836-20.233 0 0-64.073-7.6024-141.64 16.708 5.428-2.2997 32.641-13.281 74.747-21.098 40.49-7.5135 76.162-10.391 76.162-10.391z" fill="#A5ACAF"/> </g> </g> </svg>