<?xml version="1.0" encoding="UTF-8"?> <svg viewBox="0 0 500 500" xmlns="http://www.w3.org/2000/svg"> <g fill="none" fill-rule="evenodd"> <polygon points="0 0 500 0 500 500 0 500"/> <g transform="translate(35 59)"> <path d="m331.44 279.88c-9.7502 14.749-19.023 28.348-26.57 39.257 8.7327 7.2198 8.2107 16.315 8.2107 18.041-0.16811 9.6715-5.3175 16.89-10.033 21.111-5.866 4.999-13.882 7.4233-22.341 7.4852-0.24774 0-6.2996-0.1858-8.3788-0.66358-0.89362 1.3095-2.6189 2.9021-5.4237 4.0434-0.30879 0.88477-0.73436 1.7695-1.2918 2.6101-2.3093 3.4683-6.1403 5.3971-10.042 5.3971 0 0-3.9549-0.11502-6.6889-1.9987-3.5037-2.3101-5.4325-6.1501-5.4325-10.061v-0.10617c0.008848-1.8669 0.46008-3.7603 1.3626-5.4767-0.407-0.9644-1.8315-6.7243-1.8315-6.7243l3.7249-3.2825c0.30082-0.17695 1.221-1.566 2.2562-5.114 1.0971-3.4595 2.4066-8.6 5.1494-14.59 3.4949-7.6091 8.3434-15.484 11.883-20.934-0.34506-1.743-2.1765-2.5481-3.4949-2.8667-1.4776-0.39815-3.3002-1.2564-4.7504-2.9463-1.5227-1.7695-2.6897-4.2646-2.0359-7.4852 0.64588-3.1763 2.6366-5.4679 4.9636-6.5385v-0.008848c2.6366-1.3714 5.8926-0.71667 5.8926-0.71667 7.7595 0.71667 13.493 7.9187 13.493 7.9187 7.7241-10.777 25.694-37.506 26.074-38.09-23.553 4.5035-47.884 5.114-68.092 1.7607-36.745-6.0961-65.013-25.658-83.275-34.577-18.262-8.9097-53.051-18.041-88.937-8.9097-35.878 9.1309-59.572 42.186-59.572 42.186 10.715-75.489 57.475-88.212 61.961-89.486 6.8128-6.3792 15.749-25.844-5.4148-38.974-7.2286-4.4858-13.298-10.166-13.298-10.166 4.4327 0.52202 14.829-0.84938 20.598-3.1321 6.9278-2.734 13.298-3.6453 13.298-3.6453-5.4679-5.2113-13.82-7.8214-13.82-7.8214 8.3434-0.52202 21.385-3.3887 29.463-7.0428 8.078-3.6453 12.511-10.166 11.201-13.033-1.3006-2.8755-8.6-1.3006-8.6-1.3006 2.6101-3.9107 8.8654-5.4767 8.8654-5.4767-17.987-1.044-31.091 8.7504-31.091 8.7504 1.9996-4.2912 8.5735-12.006 8.5735-12.006-2.4951 0.82284-9.4051 2.9817-9.8387 3.1144 28.162-21.748 59.598-40.868 103.64-41.151 44.035-0.29198 86.938 19.447 115.52 28.596 28.605 9.1486 43.779 13.767 74.666 9.2016 14.785-2.1942 27.73-8.2549 37.214-13.935 0 0 6.6358-16.873 7.141-41.098 0 0 7.9532 14.263 7.9886 36.47 0.079629 76.214-36.851 131.88-48.654 152.14-11.281 19.933-26.11 43.804-44.239 71.276zm81.213-279.88s1.0007 18.324-2.4597 35.099c-3.3444 16.209-5.1848 22.385-5.1848 22.385-7.0782 4.1496-18.536 9.2547-35.285 12.042-31.259 5.2113-59.625-3.1852-90.592-15.342-30.976-12.157-72.419-25.251-110.87-20.836-37.284 4.2823-63.96 19.385-78.143 29.233-14.183 9.8387-16.793 12.44-28.95 15.917 0 0 9.5556 3.7603 14.475 3.7603 0 0-2.3181 9.5644-1.451 12.741 0 0 20.261-9.2636 22.579-4.9193s-7.2374 7.2463-13.891 8.9716c-6.6535 1.743-24.03 1.4422-24.03 1.4422s8.1488 6.3084 11.024 10.688c0 0-15.36 6.6889-32.445 4.3708 0 0-0.56626 6.3261 13.475 16.687-2.9905 1.0706-6.7774 2.8047-9.122 5.3086 0 0 14.714-3.0348 23.96 7.264 2.4331 3.0525 3.2294 5.7864 2.9551 9.237-0.50432 6.2554-2.9021 8.6442-8.7947 12.537-3.371 1.3714-6.9543 3.0879-10.414 5.2025-16.271 9.9979-28.171 25.216-36.523 42.602-3.6187 7.5294-6.5119 16.28-8.5558 24.216-2.0438 7.9807-2.7959 15.068-3.2737 19.492-0.47778 4.415-1.1325 18.333-1.1325 18.333s7.2994-10.228 10.723-15.13c3.4064-4.884 24.995-32.029 56.44-39.894 10.06-2.557 20.076-3.6276 29.649-3.6276 23.013-0.017696 43.566 6.2288 55.732 12.183 17.66 8.5469 46.672 28.72 84.708 35.028 8.9548 1.4776 18.607 2.2119 28.614 2.2119 9.5998 0 19.536-0.69897 29.463-2.0527-5.6095 8.37-10.989 16.191-16.103 23.438-5.1848-4.937-12.219-5.4502-12.219-5.4502-8.5292-0.80514-12.802 4.3885-12.802 4.3885-1.7262 1.8669-3.018 4.2912-3.5223 7.149-0.60165 2.6455 0.11502 5.7254 0.61138 7.2905 1.6271 5.1671 6.0421 7.5206 7.7586 8.2726-12.466 16.607-16.085 35.728-16.085 35.736l-5.6891 5.0167 2.0527 8.3169c-3.1675 10.201 1.8049 17.855 8.2549 21.022 6.5473 3.2206 12.661 1.3537 12.661 1.3537 3.8488-1.0794 7.3348-3.5037 9.706-7.0605 0.36364-0.53971 0.68128-1.0883 0.9644-1.6368 1.3272-0.71667 2.4685-1.5218 3.4418-2.3889 1.7961 0.2035 6.3969 0.34506 6.3969 0.34506 9.4317-0.07963 18.651-2.7516 25.685-8.7239 5.5387-4.9547 11.635-13.404 11.847-24.951 0-2.1677 0.39815-10.909-6.8216-18.527 45.558-66.889 75.135-109.95 94.016-153.76 50.025-116.14 7.3525-164.56 7.1667-164.97z" fill="#B1BABF"/> <path d="m262.49 339.89c-0.008847 0.017695-0.017695 0.044239-0.026543 0.061934-0.008847 0.008848-0.008847 0.017696-0.008847 0.026543 0.008847-0.017695 0.017695-0.035391 0.026543-0.053086 0-0.017696 0.008847-0.026543 0.008847-0.035391zm90.99-104.7c-20.049 9.3432-66.313 24.836-112.38 16.236-16.032-2.9905-37.134-7.9984-65.04-24.915-18.306-11.086-38.072-21.686-84.151-21.482-38.169 0.1858-62.686 17.483-70.49 23.915 20.713-67.579 81.939-57.696 81.939-57.696-11.175-5.3617-24.588-3.3091-24.588-3.3091 19.182-30.18-11.723-44.309-11.723-44.309 2.6012 0 14.333-3.3887 20.323-5.4767 5.9988-2.0792 17.005-3.5214 17.005-3.5214-3.8399-3.5302-15.705-6.3792-15.705-6.3792 11.21 0 21.358-5.4325 28.419-12.785 2.4597-2.557 9.1928-15.36 1.5572-20.323-7.0251-4.5654-20.96 0.50432-20.969 0.51317 0.017696-0.017696 41.717-44.947 127.77-25.747 40.823 9.1132 86.841 33.02 129.33 33.276 14.28 0.088477 45.787-4.5477 64.588-23.473-0.99095 35.957-7.6887 86.319-65.88 175.48zm-54.166 79.116c-0.053086-0.044239-0.13272-0.097325-0.17695-0.13272-1.0883-0.99095-2.4942-2.1854-4.0523-3.486 2.5393-3.6187 31.631-46.875 40.16-60.288 2.9826-1.0529 5.8837-2.2031 8.7504-3.4064-5.7678 9.122-37.24 56.546-44.681 67.314zm-1.5218 37.868c-3.9461 3.4418-10.653 5.636-17.66 5.5033-6.2465-0.12387-10.635-1.1325-14.608-3.2914-0.017695 0.044238-0.026543 0.079629-0.034506 0.13272-0.31056 0.26543-0.93874 1.7076-5.5298 2.3889-3.0799 0.50432-4.8663-0.11502-5.0529-0.17696 5.4148 5.4767 10.316 2.0261 10.316 2.0261 0.23093 0.95556 0.56626 1.6368 0.56626 1.6368s-1.6271 2.3898-6.5827 1.566c-0.60165-0.097325-1.1148-0.26543-1.6191-0.45123 0.097325 0.053086 0.1858 0.088477 0.28313 0.15041 1.9023 1.2475 2.4154 3.8045 1.1688 5.6979-1.2661 1.9023-3.8143 2.4154-5.7156 1.1679-1.8943-1.2564-2.4163-3.8134-1.1599-5.7068 1.0263-1.5572 2.9021-2.1677 4.592-1.6634-3.716-1.7872-4.6716-5.521-4.6716-5.521 4.7512-4.2115 4.6008-11.838 9.4494-22.438 0.22119-0.48662 0.46893-0.9821 0.70782-1.4776 0 0.017696-0.008848 0.035391-0.017696 0.053087-1.0529 2.6366-2.0615 7.1667-1.6457 10.467 0.088478 0.71667 0.23093 1.3714 0.39815 2.0084v0.008848c0.070781 0.29198 1.6988 6.8835 6.1492 5.813-0.044238 0.097325-0.69012 1.5484-0.69897 1.566 1.9465 1.2121 6.4058 3.3267 13.997 3.4241 10.662 0.14156 16.492-6.8738 18.094-12.095 1.2573-4.0611-0.69012-8.5735-4.707-12.528 1.1767-1.3626 1.8934-3.2639 1.106-5.8837 0.36276 1.2121-1.9111 3.371-4.3088 3.1586-0.22119-0.017696-0.43354-0.053087-0.65473-0.11502-3.6187-1.0086-7.7418-5.4148-11.237-8.0249-3.4772-2.6101-4.4946-6.6535-4.4239-9.5202 0.053087-2.8667-0.92016-6.2642-3.6541-8.8389-2.734-2.5738-5.1839-2.8224-5.9634-3.0259-0.78745-0.21146-1.0086-0.69897-0.92901-1.221 0.16014-0.85823 1.2661-0.69897 1.2661-0.69897 6.6358 1.3272 11.483 7.9019 12.554 9.8298 0.99095 1.7695 11.467 9.9537 15.519 13.537 1.8934 1.3802 10.095 7.671 11.564 14.121 1.743 7.6975-2.9189 14.988-6.857 18.421zm-11.821-17.501c1.3006 0.64588 3.1675 1.9111 4.0434 3.7426 0.23004 0.48663 0.33621 0.95556 0.33621 1.4776 0.1336 2.1412-2.3712 5.2733-4.592 6.0961-1.6103 0.66358-3.7426 0.99095-5.8041 0.9821-0.65473 0-1.3006-0.026543-1.9288-0.088477 0.58395-0.9821 1.2918-2.1765 2.0792-3.4595 1.7695-2.8932 3.9647-6.2642 5.866-8.7504zm-18.474-12.732c1.7527-2.9728 3.5922-5.8926 5.4591-8.7946 0.088477-0.13183 0.17696-0.26543 0.26543-0.39815-0.07963 0.61049-0.29198 3.9284 0.82284 7.2198 0.64588 1.5749 1.6722 3.1675 3.2914 4.6539 1.451 1.336 2.6632 2.4066 3.6718 3.2471-4.9008 6.335-11.847 18.182-11.847 18.182-2.9728 0.17695-4.4593-0.80514-6.1394-4.3885-0.23977-0.51317-0.42558-1.0794-0.56714-1.6722v-0.008848c-0.88477-3.6895-0.07963-8.4407-0.06105-8.5735 0.12298-0.24774 3.4232-6.6181 5.1043-9.4671zm48.972-66.013c4.07-0.99095 8.0957-2.0704 12.051-3.3091 0.11502-0.035391 0.23093-0.070782 0.34506-0.11502-4.0434 6.1315-35.878 51.68-38.072 54.635-0.17696-0.14156-5.6449-4.822-5.8386-4.9901 8.1125-11.272 31.055-45.522 31.515-46.221zm99.874-235.92c-0.5052 24.225-7.141 41.098-7.141 41.098-9.4839 5.6802-22.429 11.741-37.214 13.935-30.887 4.5654-46.061-0.053086-74.666-9.2016-28.587-9.1486-71.49-28.888-115.52-28.596-44.044 0.28313-75.48 19.403-103.64 41.151 0.43354-0.13272 7.3436-2.2916 9.8387-3.1144 0 0-6.5739 7.7152-8.5735 12.006 0 0 13.103-9.7944 31.091-8.7504 0 0-6.2553 1.566-8.8654 5.4767 0 0 7.2994-1.5749 8.6 1.3006 1.3095 2.8667-3.1233 9.3874-11.201 13.033-8.078 3.6541-21.12 6.5208-29.463 7.0428 0 0 8.3523 2.6101 13.82 7.8214 0 0-6.3704 0.91132-13.298 3.6453-5.7687 2.2827-16.165 3.6541-20.598 3.1321 0 0 6.0695 5.6802 13.298 10.166 21.164 13.13 12.228 32.595 5.4148 38.974-4.4858 1.2741-51.246 13.997-61.961 89.486 0 0 23.694-33.055 59.572-42.186 35.886-9.1309 70.676 0 88.937 8.9097 18.262 8.9185 46.53 28.481 83.275 34.577 20.208 3.3533 44.54 2.7428 68.092-1.7607-0.38045 0.58395-18.35 27.313-26.074 38.09 0 0-5.7333-7.2021-13.493-7.9187 0 0-3.256-0.65473-5.8926 0.71667v0.008848c-2.327 1.0706-4.3177 3.3621-4.9636 6.5385-0.65385 3.2206 0.51317 5.7156 2.0359 7.4852 1.4501 1.6899 3.2728 2.5481 4.7504 2.9463 1.3183 0.31852 3.1498 1.1237 3.4949 2.8667-3.5391 5.4502-8.3877 13.325-11.883 20.934-2.7428 5.9899-4.0523 11.13-5.1494 14.59-1.0352 3.5479-1.9554 4.937-2.2562 5.114l-3.7249 3.2825s1.4245 5.7599 1.8315 6.7243c-0.90247 1.7165-1.3537 3.6099-1.3626 5.4767v0.10617c0 3.9107 1.9288 7.7506 5.4325 10.061 2.734 1.8837 6.6889 1.9987 6.6889 1.9987 3.9019 0 7.7329-1.9288 10.042-5.3971 0.55741-0.84054 0.98298-1.7253 1.2918-2.6101 2.8047-1.1414 4.53-2.734 5.4237-4.0434 2.0792 0.47778 8.1311 0.66358 8.3788 0.66358 8.4584-0.061934 16.474-2.4862 22.341-7.4852 4.7158-4.2204 9.8652-11.439 10.033-21.111 0-1.7253 0.52202-10.821-8.2107-18.041 7.5471-10.909 16.82-24.508 26.57-39.257 18.129-27.472 32.958-51.343 44.239-71.276 11.803-20.262 48.733-75.923 48.654-152.14-0.035391-22.208-7.9886-36.47-7.9886-36.47zm-153.88 319.95c-0.008847 0.008848-0.008847 0.017696-0.008847 0.026543 0.008847-0.017695 0.017695-0.035391 0.026543-0.053086 0-0.017696 0.008847-0.026543 0.008847-0.035391-0.008847 0.017695-0.017695 0.044239-0.026543 0.061934z" fill="#000"/> <path d="m323.18 186.17c-20.598 14.572-52.848 19.023-52.848 19.023-0.36276 1.3979-2.4951 2.8667-2.4951 2.8667s3.3002 1.221 11.405 7.3171c8.0957 6.0961 5.9014 5.7953 8.485 7.5383 2.5835 1.7342 4.0523 1.2475 4.0523 1.2475 0.7786 1.566 0.87681 3.893 0.87681 3.893 1.0785 1.0175 6.3606 6.0607 1.4501 11.281-4.9193 5.2202-10.6 0.3716-10.6 0.3716-2.0084 0.42469-3.9638-0.23889-3.9638-0.23889s-10.511 6.6181-20.951-0.5928c-8.4947-5.8572-7.9815-12.803-7.4852-15.2-2.8676 1.6457-5.9466 2.9286-9.1043 3.9195-8.5213 2.672-19.395 3.778-30.198 0.1858-7.0959-2.3889-12.971-6.5296-17.607-11.122-4.6451-4.6008-8.078-9.6794-10.316-14.254-0.33621-0.69897-0.65473-1.3891-0.93786-2.0615-0.74321 1.7695-4.3 8.4859-15.315 8.0072-12.679-0.54856-17.076-12.166-17.076-12.166s-1.9553-0.65473-3.3002-2.1942c0 0-7.4498 0.44239-8.2284-6.6889-0.76975-7.1313 6.4942-7.963 7.9718-8.1222 0 0 1.4687-1.8049 3.0348-2.5835 0 0 0.88477 1.2829 3.9903 1.451 3.1056 0.16811 1.1767-0.92016 11.316-0.89362 10.14 0.017696 13.502 1.044 13.502 1.044s-0.81399-2.4597-0.25658-3.7957c0 0-23.031-23.004-30.666-47.052s-5.2998-32.967 3.9726-58.324c0 0 6.8747 43.203 27.977 70.348 12.042 15.492 25.588 27.57 35.01 35.09 0.21234 0 0.43354 0.008848 0.64588 0.008848-2.0084-2.2385-3.5391-4.8663-4.3-7.8745-1.8846-7.4321-4.9724-14.342-6.3881-19.845-1.4156-5.5121 1.7342-16.528 1.7342-16.528-4.2292-6.7774-2.1677-17.934-2.1677-17.934s2.2916-1.0883 4.0346-3.2029c1.7342-2.1235 1.1325-8.3877 2.5481-17.607 1.4156-9.2193 7.4144-18.757 20.704-24.181 13.219-5.3971 33.073 1.6811 33.25 1.743 0.17695 0.053086 20.288 6.3792 27.578 18.66 7.3259 12.343 6.3527 23.579 1.92 31.781-4.4318 8.2107-8.6973 12.838-8.5823 15.581 0.10617 2.734 1.2829 4.9813 1.2829 4.9813s-5.0786 10.148-12.555 13.015c0 0-4.1319 10.679-8.5912 14.218-4.4416 3.5391-11.077 7.1844-17.067 11.98-2.3623 1.8934-5.0786 3.0613-7.9718 3.6541 0.19465 0.14156 0.38045 0.28313 0.5751 0.42469 12.042-0.31852 30.056-1.7784 48.91-6.8481 33.206-8.9362 64.748-39.249 64.748-39.249-7.8913 25.818-11.414 34.347-32.001 48.928zm31.586-102.99c-42.487-0.25658-88.504-24.163-129.33-33.276-86.053-19.2-127.75 25.729-127.77 25.747 0.0088477-0.0088477 13.944-5.0786 20.969-0.51317 7.6356 4.9636 0.90247 17.766-1.5572 20.323-7.0605 7.3525-17.209 12.785-28.419 12.785 0 0 11.865 2.849 15.705 6.3792 0 0-11.007 1.4422-17.005 3.5214-5.9899 2.0881-17.722 5.4767-20.323 5.4767 0 0 30.905 14.13 11.723 44.309 0 0 13.413-2.0527 24.588 3.3091 0 0-61.226-9.8829-81.939 57.696 7.8037-6.4323 32.321-23.73 70.49-23.915 46.079-0.2035 65.845 10.396 84.151 21.482 27.906 16.917 49.008 21.925 65.04 24.915 46.071 8.6 92.335-6.8924 112.38-16.236 58.192-89.159 64.889-139.52 65.88-175.48-18.801 18.925-50.308 23.562-64.588 23.473z" fill="#A71930"/> <path d="m262.24 331.71c0 0.017695-0.008848 0.035391-0.017695 0.053086-1.0538 2.6366-2.0615 7.1658-1.6466 10.468 0.088477 0.71578 0.23093 1.3714 0.39903 2.0076v0.009732c-2.4871 11.422-7.3003 11.608-8.5743 11.44-0.2035-0.027428-0.31852-0.062819-0.31852-0.062819 4.7503-4.2106 4.5999-11.837 9.4494-22.438 0.22119-0.48663 0.46982-0.9821 0.7087-1.4776zm10.98-18.97c-0.074321 0.61138-0.29374 3.9275 0.82284 7.2198-0.008848 0.007963-6.1421 8.0267-11.591 20.023 0.086708-0.2265 0.039815-0.1159 0.007078-0.031852-0.003539 0.007963-0.006193 0.015042-0.008848 0.023005-0.88212-3.6886-0.07786-8.4407-0.060164-8.5735 0.12298-0.24774 3.4232-6.6181 5.1051-9.4688 1.7519-2.972 3.5922-5.8917 5.4599-8.7938 0.088477-0.13272 0.17607-0.26543 0.26455-0.39815zm55.643-60.239c-4.0434 6.1315-35.879 51.673-38.073 54.629-0.17784-0.14156-5.6457-4.822-5.8395-4.9901 8.1143-11.272 31.056-45.515 31.516-46.214 4.0708-0.99095 8.0974-2.0704 12.052-3.3091 0.1159-0.035391 0.23181-0.070782 0.34506-0.11502zm-52.718-33.167s1.7819 1.4289 1.9306 1.5413c0.67774 0.51317 2.1305 1.8571 2.7994 2.5145 0.55121 0.54414 1.1024 1.0883 1.6474 1.6386 0.4008 0.40611 2.0589 1.9704 2.6207 2.3889 0.42558 0.31675 0.85735 0.59634 1.305 0.81576 0.40965 0.20084 0.83434 0.35922 1.2838 0.46805l-0.041585 0.030082c-0.92282 0.69189-2.0076 1.1458-3.1746 1.1458-0.4008 0-0.83523-0.05928-1.2236-0.15307-0.54414-0.13272-1.0653-0.3309-1.5634-0.58749-0.3141-0.16368-0.622-0.33887-0.91751-0.53706-0.18138-0.12121-0.36453-0.25305-0.55121-0.39372-0.003539-0.005308-0.010617-0.019465-0.014156-0.023004 0.052202-0.23977 0.093786-0.49547 0.1106-0.78214 0.062819-1.0387-0.15218-2.2314-0.5406-3.1931-0.64854-1.7005-3.6063-4.8194-3.6709-4.8733zm-10.703-6.6544c0.14687 0.083169 0.28667 0.15572 0.43885 0.24154 0.7202 0.40523 1.4431 0.80603 2.158 1.2174 1.5077 0.86973 2.9958 1.7722 4.4601 2.7127 1.0458 0.67154 2.0828 1.3608 3.0923 2.0854 0.12918 0.095555 0.25747 0.19023 0.38488 0.2849 0.98652 1.098 1.9925 2.5092 2.4588 3.8196 0.54944 1.5103 0.58749 2.9065 0.39107 3.9293-3.2073-3.0861-9.951-8.0426-11.849-9.0256 0.18492-2.2668-0.75206-4.1284-1.5351-5.2653zm-53.861-26.441c1.0237 0.13183 2.0235 0.28224 3.002 0.44681-0.55652 0.76268-1.0883 1.5484-1.5935 2.3544 1.0847 0.1973 2.1836 0.42204 3.2949 0.67243 0.453-0.82903 0.92459-1.6421 1.4112-2.434 0.93344 0.20084 1.8527 0.41673 2.7561 0.64766-0.41496 0.82018-0.82107 1.6598-1.2183 2.5128 1.0343 0.27605 2.0748 0.57687 3.1215 0.90335 0.32914-0.87681 0.66004-1.7421 0.99006-2.5915 0.8777 0.27251 1.7483 0.5636 2.6127 0.87504-0.25039 0.87681-0.50786 1.7651-0.77418 2.6632 1.0316 0.36718 2.0421 0.75294 3.0348 1.152 0.19642-0.91574 0.3778-1.8253 0.5406-2.7251 0.86531 0.35922 1.7244 0.73967 2.5924 1.1458-0.089362 0.91662-0.20261 1.8403-0.33887 2.7658 1.0352 0.46274 2.0456 0.93963 3.0295 1.428 0.078745-0.93167 0.12741-1.8633 0.14333-2.7906 0.883 0.45831 1.7695 0.94317 2.6658 1.4546 0.041584 0.93521 0.044239 1.8695 0.005309 2.8012 0.54148 0.29552 1.0715 0.5928 1.5935 0.89274 0.005309 0.14599 0.007078 0.29198 0.010617 0.43885 0.018581 0.82195 0.007963 1.6492-0.029197 2.4809-0.010617 0.23889-0.023004 0.47955-0.036276 0.71932-0.62642-0.31763-1.2599-0.63438-1.9049-0.94759-0.238 1.4413-0.58926 2.864-1.0697 4.2593-0.95202-0.55298-1.9253-1.0838-2.9047-1.5935 0.43088-1.3369 0.76887-2.6897 1.0263-4.0514-1.0485-0.47601-2.1199-0.94317-3.2126-1.3997-0.28844 1.2927-0.63438 2.5844-1.0387 3.8709-1.0033-0.46362-2.0173-0.90866-3.0365-1.3263 0.39815-1.2511 0.75914-2.5013 1.0874-3.7452-1.0697-0.4123-2.1571-0.81311-3.2622-1.2006-0.37691 1.2077-0.7671 2.4278-1.1714 3.655-1.0396-0.37337-2.0801-0.72463-3.133-1.0511 0.41673-1.2228 0.84054-2.4305 1.2688-3.6205-1.1148-0.35479-2.2243-0.68835-3.3276-1.0024-0.48751 1.1883-0.95379 2.3995-1.3891 3.6355-1.0626-0.28401-2.1412-0.5406-3.2188-0.77772 0.44858-1.2626 0.95113-2.4933 1.4962-3.6939-1.1493-0.29109-2.2889-0.56183-3.4143-0.81045-0.61049 1.2334-1.1511 2.5074-1.6094 3.824-1.0883-0.18846-2.1854-0.34772-3.2816-0.48397 0.453-1.3864 1.0263-2.7198 1.6961-3.9992-0.70782-0.13537-1.4094-0.26278-2.1022-0.38311 0.15041-0.22739 0.30348-0.453 0.45831-0.67685 0.47866-0.69278 0.97591-1.3643 1.4935-2.0129 0.060165-0.076091 0.11856-0.15395 0.18049-0.22827 0.60076 0.070782 1.2086 0.15041 1.8226 0.238 0.54325-0.78745 1.1219-1.5519 1.7333-2.2916zm133.4-33.481c-0.16545 0.38576-6.7252 15.453-34.01 27.29-1.213 0.52644-2.4508 1.0502-3.7479 1.5616-5.5466 2.0863-17.226 6.0333-32.671 8.8221-6.2438 1.1272-12.561 1.8961-18.881 2.4269-0.50609 0.041584-4.1699 0.31056-4.1699 0.31056-1.1493-1.4731-2.4092-2.9251-3.7877-4.3513 8.3744-0.36984 16.973-1.2006 25.412-2.7171 34.818-6.2571 56.202-20.819 66.454-28.915 0.93698-0.74144 1.7625-1.413 2.5163-2.0341 1.7589-1.4254 2.8525-2.3278 2.8852-2.3933zm-180.36 29.459c0.31056-0.00177 0.9299 0.010617 0.883 0.015926-1.6227 0.089362-4.1903 0.68482-5.8254 1.6669-0.008847 0.003539-0.017695 0.012386-0.027428 0.01858-0.9352 0.54502-1.9332 1.4608-2.442 2.4225-0.033621 0.062819-0.21942 0.41319-0.26986 0.46982-5.3228 0-6.2748-4.0301-6.2943-4.1027 0.43973 0.18757 0.88654 0.31675 1.3466 0.40346l0.36617 0.059169c0.36941 0.049603 0.74864 0.071335 1.1388 0.072662 1.6351 0.015042 3.3321-0.29374 5.0998-0.53971 1.9952-0.2787 4.0089-0.47689 6.0244-0.48663zm1.1263 0.013272c0.6972 0.014156 1.3935 0.035391 2.0898 0.069897 1.0989 0.053086 2.1969 0.13183 3.2931 0.23004 2.2066 0.1973 4.7751 0.49016 6.9641 0.837-1.3139 0.43619-3.125 1.2962-4.3451 3.2259-0.016811 0.01681-0.034506 0.034506-0.047778 0.050432-2.1155-0.36541-10.484-0.47512-14.9 0.046893 0.4592-0.93255 1.3307-2.0235 2.6782-2.8985 1.1617-0.76268 2.8215-1.282 4.2681-1.5616zm-14.948-94.639c1.9049 8.016 7.5648 37.861 37.194 69.958 5.8616 6.35 12.273 12.239 18.779 17.62-1.9642 0.31852-3.862 0.72817-5.6696 1.2219-4.5531-4.0131-15.084-14.388-15.634-14.928l-0.022347-0.021869c-8.815-8.8743-15.396-17.401-20.347-25.328-1.0316-1.6881-1.8333-3.079-2.4729-4.1195l-0.98033-1.7625c-13.666-25.031-10.847-42.64-10.847-42.64zm59.405 54.355c1.3856-1.1599 4.5053-0.61934 4.5053-0.61934s1.3997 1.4714 1.7297 2.572c0.32117 1.1077-0.010617 7.1437 2.3738 11.297v-0.09821s0.11768-0.43885 0.62377-1.1927c0.51051-0.75471 1.5023-1.8235 2.0969-1.4015 0.59457 0.42115 0.51494 1.6076 0.50078 2.8791-0.009732 1.2705-0.43885 2.6287-0.76002 3.0135 0 0 0.49459 1.0131 1.8403 1.6545 0 0-0.056626-0.48397 0.041584-1.1741 0.21235-1.2183 0.82461-2.2234 1.2166-3.3312 0.11944-0.38753 0.49813-0.78656 1.0626-0.48397 0.010617 0 1.1237 0.58041 2.1102 1.0732 0.11414 0.083169 0.79984 0.60607 0.43354 1.5899-0.01681 0.036275-0.020349 0.056625-0.030967 0.084053-0.014156 0.045123-0.034506 0.083169-0.048662 0.12829-0.36984 0.92813-0.68393 1.7766-1.1573 2.7561 0 0-0.24243 0.90424-0.66712 0.94228 0 0 0.82903 0.54414 1.2024 0.70163 0.57068 0.24154 1.2812 0.54768 1.6315 0.63438 0 0-0.37868-0.58572-0.28313-1.4227 0.22739-1.1927 0.58041-2.8339 0.88123-4.208 0.10352-0.32294 0.39372-0.86885 1.0573-0.66004 0.74675 0.3079 1.5068 0.59988 2.2677 0.8777 0.63881 0.26809 0.6335 0.89893 0.60784 1.1113-0.3486 1.5174-0.73967 3.3356-1.1546 4.7875-0.094671 0.22119-0.22739 0.53175-0.33798 0.64588 0 0 0.68393 0.48043 1.144 0.60165 0.45566 0.11944 1.3236 0.29551 1.3236 0.29551s-0.16634-0.58749 0.044239-1.213c0.003539-0.012387 0.003539-0.023004 0.003539-0.038046 0.33887-0.96971 0.67951-1.943 1.0237-2.9215 0.082284-0.25039 0.32471-0.80338 0.46274-1.1626 0.074321-0.18138 0.36984-0.7379 1.0467-0.59457 0.89274 0.26809 1.7899 0.51494 2.6915 0.73967 0.66712 0.1973 0.2849 1.2201 0.2849 1.2201s-0.96706 2.3765-1.5926 3.9072c-0.007078-0.002654-0.21766 0.53617-0.5636 0.8193 0 0 0.62111 0.27516 1.0874 0.36807 0.9821 0.19376 1.566 0.17518 1.812 0.192 0 0-0.30259-0.73259 0.053087-1.6085 0.021234-0.036276 0.030967-0.081399 0.045123-0.12121 0.29905-0.69278 0.61049-1.3856 0.89716-2.081 0.084053-0.19642 0.15837-0.39372 0.23623-0.5928 0.10086-0.30082 0.57776-0.79276 1.3634-0.65296 0.026544 0.00177 0.043354-0.001769 0.068128 0.00177 0.62642 0.11768 1.2528 0.22296 1.8801 0.3194 0.006193 0.007078 1.1281 0.23712 0.71844 1.2882-0.56714 1.259-1.1679 2.5225-1.8421 3.793 0.69986 0.054856 1.4068 0.094671 2.1137 0.11414 0 0-0.088478-0.062819 0.20173-0.8485 0.29021-0.78479 1.1405-2.4579 1.2254-2.7065 0.084938-0.24508 0.40965-1.2166 0.81753-1.2652 0.41142-0.043354 2.0129 1.2396 1.5961 3.7143 4.4017-1.8801 7.763-6.8818 8.6876-7.563 0.80868-0.59634 2.4243-0.91928 2.8304-0.9936 0.67951 0.39107 2.6526 1.628 2.9879 3.0852 0 0-3.3161 3.0516-7.3994 4.8503-4.0885 1.7996-10.272 5.6979-12.709 7.3224-0.92282 0.61403-2.1774 1.144-3.7629 1.436-0.98918-1.7642-4.4292-3.9417-8.838-5.4228-4.6088-1.5484-8.8407-1.8474-10.567-0.88831-1.2581-1.2891-2.0261-2.5765-2.4199-3.7116-0.9591-2.764-3.5462-9.6069-5.7165-13.504-2.1739-3.9001-2.979-8.3346-2.979-8.3346zm13.353-50.744c0.088477-4.592 4.9459-23.491 30.135-19.2 4.6451 0.9644 8.37 2.0881 9.3432 2.3977 0.097326 0.035391 0.1858 0.061934 0.28313 0.097325 0.47778 0.15041 1.1325 0.36276 1.9208 0.65473 0.22916 0.088477 0.46804 0.17695 0.71578 0.27428 0.32737 0.12387 0.67243 0.25658 1.0352 0.407 0.47778 0.19465 0.9821 0.407 1.513 0.63704 0.52202 0.23889 1.0706 0.48663 1.6377 0.76091 1.229 0.5928 2.5384 1.2918 3.8567 2.0881 0.13272 0.070782 0.26543 0.15041 0.3893 0.23004 0.044239 0.017696 0.07963 0.044239 0.11502 0.070782 10.255 6.2377 13.068 13.856 13.068 20.155 0 5.5387-2.1765 10.069-3.371 11.741-1.6811 2.3358-3.194 3.9372-3.9726 5.114-0.92901-1.6634-1.6457-3.4329-1.92-5.2025l1.77e-4 0.00631 0.001539 0.020478c0.03487 0.52247 0.6337 8.5578 4.7243 12.684l0.21102 0.20641s-2.38 5.3175-2.8755 8.5469c-0.48662 3.2383 0.76975 6.6446 0.76975 6.6446s-0.31852 0.51317-0.7786 1.221c-2.5119 2.964-6.9101 5.5298-9.2724 5.0963-2.6809-0.49547-9.1397-2.6897-12.882-1.92-3.0702 0.63704-4.9193 2.3712-5.9368 4.123 0 0 0.008848-0.008847 0.017695-0.008847-0.27428 0.32737-0.53086 0.69012-0.70782 1.1148 0 0-0.7963 1.3891-1.0175 3.2471-0.54768-0.23889-1.0175-0.42469-1.0175-0.42469 0.008848 0.097325 0.008848 0.23004-0.017695 0.3716-0.035391 0.27428-0.15926 0.71667-0.17607 0.7786-0.009733 0.097325-0.018581 0.16811-0.035391 0.19465-0.062819 0.24774-0.1336 0.49547-0.19554 0.74321-0.24685 0.90247-0.46805 1.6368-0.75206 2.5216-0.008848 0.008848-0.026543 0.035391-0.035391 0.061934-0.28313 0.84054-1.1325 0.56626-1.1325 0.56626-0.008848 0-0.09644-0.035391-0.09644-0.035391-0.62023-0.30967-1.3015-0.63704-2.0093-0.97325 0 0-0.7963-0.41584-0.67243-1.2387-0.008848-0.017695 0-0.035391 0.008847-0.061934 0.008848-0.035391 0-0.061934 0.018581-0.088477 0.025658-0.070782 0.043353-0.15926 0.069897-0.22119 0.22119-0.7963 0.69012-2.5039 0.75206-2.9021 0.07963-0.46893 0.3893-1.3272 0.58395-1.6634-0.13272-0.13272-0.46893-0.49547-0.7609-0.63704-0.24774-0.12387-0.51317-0.17696-0.87593-0.15041-0.13272 0.11502-0.35391 0.46008-0.36276 0.64588-0.008847 0.10617-0.29109 0.99095-0.60165 1.9642-0.31763 0.9821-0.68128 2.0615-0.84054 2.5481-0.17607 0.53086-0.55741 0.64588-0.86708 0.64588-0.19244 0-0.35502-0.044792-0.42428-0.067188l-0.035806-0.012442c-0.61846-0.24774-1.4599-0.54856-2.1235-0.7963-0.043354-0.008848-0.07963-0.035391-0.12387-0.044239-0.7963-0.30082-0.74321-0.9821-0.69012-1.2564 0.34506-1.0263 0.78745-2.327 1.1237-3.3444 0.070782-0.23889 0.15926-0.47778 0.23004-0.72551 0-0.008848 0.008848-0.017696 0.017695-0.035391 0.026544-0.10617 0.32737-0.86708 0.78745-1.0971-0.30082-0.23004-0.90247-0.46893-1.3528-0.62819-0.5406-0.17695-1.505-0.34506-1.5581-0.35391 0.15926 0.34506 0.19554 0.94671 0.11502 1.2475-0.11502 0.39815-1.1767 4.1053-1.221 4.2469-0.053087 0.14156-0.23889 0.58395-0.53086 0.69012-0.28313 0.10617-1.0794-0.15041-1.0794-0.15041-0.053087-0.008848-0.088478-0.017695-0.13272-0.026543-0.67243-0.2035-1.628-0.35391-2.2641-0.53086 0 0-1.0449-0.30082-0.71755-1.2564 0 0 0.68128-2.4951 1.0175-3.6807 0-0.026543 0.008848-0.070782 0.017695-0.10617 0.026544-0.088477 0.17696-0.58395 0.23004-1.336 0.053086-0.75206-0.45124-0.92901-0.82284-0.92901-0.35302 0-0.74321 0.63704-0.8308 1.0086-0.09821 0.39815-0.3194 1.0617-0.3194 1.0617l-0.026543 0.061934c-0.026543 0.061934-0.053086 0.12387-0.070782 0.17696-0.36276 0.9644-0.64588 1.7607-0.97325 2.7251-0.30795 0.81539-1.1556 0.75248-1.3307 0.7302l-0.031877-0.00468c-0.76091-0.15926-1.4953-0.30967-2.1765-0.43354-0.008848 0-0.097326-0.026543-0.097326-0.035391 0 0-0.84938-0.29198-0.56626-1.1325 0-0.026544 0-0.053087 0.017696-0.07963 0.30171-0.87593 0.55741-1.5837 0.91132-2.4597 0.097325-0.23004 0.45123-1.0706 0.65473-1.3979 0.21235-0.32737 0.49547-0.50432 0.49547-0.50432 0.009733-0.19465-0.28313-0.55741-0.81399-0.74321-0.06105-0.017696-0.13272-0.035391-0.21235-0.053087 0.30967-0.76975 0.69897-1.8315 0.88477-2.7251 0.58395-2.1677 0.51317-5.2202-1.9996-8.0957-2.5216-2.8755-9.007-5.0167-11.431-6.2377-2.4331-1.221-4.6185-7.087-4.3265-11.139 0 0 3.0525-1.9642 4.6097-4.8397 1.5749-2.8667 2.8667-8.5381 2.8667-8.5381 5.8837-0.66358 11.387-6.9278 11.724-7.3171-1.4608 1.4068-3.3719 2.4597-5.3538 3.2737 0.10617-1.3449-0.11502-3.6099-0.053086-6.9632z" fill="#FFF"/> <path d="m263.74 296.96c0.16103-0.85823 1.267-0.69897 1.267-0.69897 6.6358 1.3272 11.484 7.901 12.554 9.8298 0.99183 1.7704 11.468 9.9546 15.52 13.538 1.8943 1.3802 10.096 7.6719 11.564 14.122 1.7439 7.6975-2.9189 14.988-6.857 18.422-3.9461 3.4418-10.654 5.6351-17.661 5.5033-6.2465-0.12475-10.635-1.1325-14.607-3.2914-0.019465 0.044238-0.028313 0.079629-0.036276 0.13272-0.30967 0.26455-0.93874 1.7067-5.5298 2.3889-3.0799 0.50432-4.8663-0.11502-5.0529-0.17696 5.4157 5.4776 10.316 2.0261 10.316 2.0261 0.23181 0.95644 0.56626 1.6368 0.56626 1.6368s-1.6271 2.3898-6.5818 1.5669c-0.60253-0.09821-1.1157-0.26543-1.6191-0.45124 0.09644 0.053087 0.18492 0.088478 0.28224 0.15041 1.9031 1.2475 2.4154 3.8045 1.1688 5.6971-1.2661 1.9031-3.8134 2.4163-5.7156 1.1688-1.8943-1.2564-2.4163-3.8134-1.1599-5.7068 1.0263-1.5572 2.9012-2.1686 4.592-1.6634-3.716-1.7872-4.6716-5.5228-4.6716-5.5228s0.11502 0.035391 0.31852 0.062819c1.2741 0.16811 6.0872-0.017696 8.5743-11.44 0.070782 0.29198 1.6988 6.8827 6.1492 5.8121-0.044239 0.09821-0.69012 1.5484-0.69897 1.5669 1.9456 1.2121 6.4058 3.3267 13.997 3.4241 10.662 0.14156 16.493-6.8747 18.095-12.095 1.2564-4.062-0.69012-8.5743-4.7079-12.529 1.1767-1.3626 1.8943-3.2648 1.106-5.8846 0.36276 1.213-1.9111 3.3719-4.3097 3.1595-0.22119-0.01858-0.43177-0.053971-0.65296-0.11502-3.6196-1.0095-7.7435-5.4157-11.238-8.0258-3.4772-2.6101-4.4946-6.6535-4.4239-9.5202 0.051317-2.8676-0.92105-6.2651-3.655-8.8398-2.734-2.5747-5.1839-2.8224-5.9634-3.0259-0.78833-0.21234-1.0095-0.69897-0.9299-1.221zm22.225 37.711c1.3006 0.64588 3.1675 1.9111 4.0434 3.7426 0.23004 0.48663 0.3371 0.95556 0.3371 1.4767 0.1336 2.142-2.3712 5.2741-4.5929 6.0979-1.6103 0.66358-3.7435 0.99095-5.805 0.98121-0.65473 0-1.2988-0.025659-1.9279-0.087593 0.58395-0.98298 1.2927-2.1765 2.0783-3.4595 1.7695-2.8941 3.9656-6.2651 5.8669-8.7513zm-11.925-14.706c0.64588 1.5749 1.6722 3.1675 3.2914 4.6539 1.4519 1.336 2.6632 2.4066 3.6727 3.248-4.9016 6.335-11.848 18.182-11.848 18.182-2.972 0.17784-4.4601-0.80426-6.1403-4.3885-0.23977-0.51405-0.42469-1.0794-0.56626-1.6722 5.4484-11.997 11.582-20.015 11.591-20.023zm69.952-72.971c-5.7687 9.122-37.242 56.54-44.685 67.308-0.051317-0.044239-0.13272-0.097325-0.17607-0.13272-1.0892-0.99095-2.4951-2.1863-4.0523-3.486 2.5384-3.6196 31.632-46.878 40.162-60.283 2.9826-1.0538 5.8846-2.2031 8.7513-3.4064zm-78.845-44.878s0.51671-0.38222 0.82549 0.007963c0.18138 0.24066 0.20261 0.55298-0.13979 0.86796-0.33533 0.31763-1.5085 1.1007-2.2031 3.1401-0.69632 2.0527-0.26455 4.0363 0.53706 5.475 0.74498 1.3351 1.0617 2.9445 0.80514 4.4566-0.087592 0.53706-0.25216 1.075-0.48132 1.5678-0.56891 1.2157-1.0148 2.4862-1.5298 3.7258-0.5636 1.351-1.1891 2.6092-1.9943 3.3745-0.89362 0.8485-2.3358 0.5866-3.2197-0.12741-0.036276-0.030082-0.080515-0.048662-0.11502-0.079629 0.37249 1.597 1.3732 2.2358 2.4101 2.4659-0.48574 3.1861 0.645 5.5051 4.4814 7.387 3.9249 1.9226 10.733 1.9164 15.817-2.9366-0.50874-0.57245-1.1184-0.99183-1.7112-1.467-0.008848-0.007079-0.017696-0.015926-0.025659-0.018581 0.39549-0.11414 0.90512-0.3309 1.2298-0.73525 0.18138-0.22562 0.30967-0.59722 0.40257-1.0246l0.021234 0.015925c0.18669 0.14068 0.36984 0.27251 0.55121 0.39372 0.29552 0.19819 0.60342 0.37337 0.91751 0.53706 0.49813 0.25658 1.0193 0.45477 1.5634 0.58749 0.38842 0.093786 0.82284 0.15307 1.2236 0.15307 1.167 0 2.2517-0.45389 3.1746-1.1458 0.010618-0.007963 0.023005-0.013272 0.031852-0.021235 0.009733 0.00354 0.087593 0.56537 0.092902 0.68924 0.038045 0.7264-0.041585 1.8819-0.72374 3.0091 0.70251-0.53617 1.6846-0.65031 2.5172-0.19554 1.1307 0.61049 1.5519 2.027 0.93698 3.1542-0.61049 1.1299-2.0252 1.5528-3.156 0.93786-1.0918-0.5928-1.4962-1.9235-0.97237-3.0295-0.18138 0.18669-0.35479 0.37691-0.58218 0.55475-1.3395 1.0281-2.3854 1.1874-3.0365 1.1476-0.46274-0.029197-0.73082-0.15749-0.73082-0.15749s0.027428-0.29374-0.10352-0.78214c-0.017695-0.066358-0.028312-0.12475-0.052201-0.19907 0.15926 0.014157 0.45477 0.018581 0.82284-0.032736 1.1334-0.16103 2.9861-0.87946 3.8744-3.7966 0 0-0.21765 0.28313-0.59103 0.64942-0.81576 0.80514-2.4959 2.0102-4.8079 1.8386-1.1095 0.95113-7.978 6.4102-16.207 3.4975-8.9866-3.1825-9.0557-8.7301-8.8309-10.542 0.14687-1.1838 0.77949-3.133 0.81045-3.2277 0.73082-2.2721 4.438-10.476 4.4566-11.746 0.021234-1.2705 0.70162-5.9085 3.7107-8.3691zm1.8271 15.835c1.8978 0.98298 8.6416 5.9395 11.849 9.0256-0.10086 0.51405-0.24243 0.95998-0.44593 1.221-0.31852 0.39903-0.78126 0.61846-1.1785 0.75206-2.8207-1.9315-7.1065-4.4646-11.625-6.4987 0.2787-0.69809 0.59988-1.5652 0.98121-2.6384 0.24154-0.69012 0.41938-1.8616 0.41938-1.8616zm-82.947-43.323c0.48397-0.12741 0.66889 0.49193 0.66889 0.49193 0.9122 3.7762-1.3413 7.886-2.0881 8.9123-0.75029 1.0228-2.7472 9.8042-3.5356 12.061 0 0-0.9299 2.3155-1.2997 3.0622-0.81576 1.6315-4.3168 5.9634-13.403 3.0764-8.3231-2.641-10.549-11.129-10.861-12.549-2.8375-1.8262-2.7578-5.2573-2.7578-5.2573-1.3962 3.801 0.89893 5.5413 1.4378 5.8899-0.061934-0.0407-0.53883 0.45743-0.59457 0.5229-0.008848 0.009732-0.11502 0.16191-0.12387 0.16014 0 0-0.81576-0.15395-1.566-1.2139-0.31232-0.44239-0.61669-1.0246-0.83965-1.8439-0.081399-0.29551-0.1336-0.5813-0.16368-0.85558-0.003539 0.031852-0.004424 0.061934-0.008848 0.092901-0.19376 1.2847-1.3962 2.1659-2.6791 1.9739-1.282-0.19376-2.1704-1.3971-1.9766-2.6817 0.19288-1.2865 1.3962-2.1695 2.6782-1.9722 1.0122 0.1513 1.7766 0.93167 1.9598 1.8872 0.071666-2.3155 1.7607-3.6718 1.7607-3.6718 0.019465 0.072552 0.97148 4.1027 6.2943 4.1027-0.18492 0.39903-0.30613 0.77152-0.29905 1.0608 0.017695 0.51936 0.2902 0.99802 0.54325 1.328l-0.26143-1.03e-4c-0.58815 9.63e-4 -2.0225 0.014112-2.0239 0.13724 1.1263 6.941 6.5553 11.052 10.843 11.883 4.1885 0.81399 6.4907-0.34949 8.0205-3.1728 0.96971 0.44239 2.1615 0.52025 3.4241-0.52556-1.8483 0.078745-2.6499-1.0414-2.7897-1.8509-0.36718-2.1261 0.95732-5.3467 1.4723-7.7922 0.52202-2.4464 2.38-3.9443 3.8886-4.6052 1.5138-0.66181 3.048-1.9863 3.7329-4.0408 0.68216-2.0456 0.21412-3.379 0.13802-3.8364-0.07963-0.45831 0.12033-0.69366 0.40965-0.77418zm160.95-21.865c0.003539-0.001769-0.16191 0.4822-0.16191 0.4822-2.0323 5.8599-5.7962 11.311-9.9165 15.889-2.995 3.3285-6.2598 6.3598-9.744 9.1716-5.3431 4.3115-11.419 7.8081-17.614 10.733-6.1545 2.9056-12.606 5.2131-19.161 7.0313-10.253 2.8428-21.101 4.3336-31.821 4.9353-0.81753-1.5882-1.7926-3.2108-2.895-4.8477 34.453-2.4667 57.131-15.967 57.131-15.967l0.17253-0.13802c27.285-11.837 33.844-26.904 34.01-27.29zm-186.18 33.933c4.4168-0.52202 12.785-0.4123 14.9-0.046893 0.013272-0.015926 0.030967-0.033622 0.047778-0.049548-0.32825 0.52025-0.62376 1.098-0.84142 1.7855-0.3486 1.0803-0.61138 1.9686-0.81399 2.6933-5.091-1.3971-13.189-1.8288-13.189-1.8288-0.23181-0.34064-0.46982-0.79895-0.48397-1.3077-0.007078-0.33268 0.15041-0.77418 0.38045-1.2458zm-8.0019-99.099s-2.8189 17.609 10.847 42.64l-0.041498-0.075482-0.036362-0.065197s9.74 24.092 35.285 46.688l0.77894 0.68424c-1.8669 0.65031-3.6223 1.3581-5.229 2.1243-0.25658 0.1221-2.833-2.4437-3.1489-2.7242-2.5747-2.2792-5.0839-4.6309-7.5153-7.0623-5.6643-5.6652-10.888-11.784-15.467-18.36-3.7187-5.3378-7.0578-10.96-9.7582-16.881-2.6393-5.7855-4.791-11.781-6.1368-18.003-1.267-5.8572-1.8288-11.881-1.5121-17.869 0.18669-3.5391 0.61757-7.2189 1.7625-10.591 0-0.0017696 0.17076-0.50521 0.17076-0.50521zm61.495 43.424s2.4022 1.1652 3.1507 1.6023c0 0-0.005309 0.025659-0.012387 0.07786-0.090247 0.67243-0.72374 5.4644-0.75648 7.7701-0.003539 0.35391 0.002655 0.64942 0.032737 0.86177 0 0-3.1197-0.5406-4.5053 0.61934 0 0 0.80514 4.4345 2.979 8.3346 2.1704 3.8974 4.7574 10.74 5.7165 13.504 0.39372 1.1352 1.1617 2.4225 2.4199 3.7116 1.7262-0.9591 5.9581-0.66004 10.567 0.88831 4.4088 1.4811 7.8488 3.6585 8.838 5.4228 1.5855-0.29198 2.8401-0.82196 3.7629-1.436 2.4367-1.6244 8.6204-5.5228 12.709-7.3224 4.0832-1.7987 7.3994-4.8503 7.3994-4.8503-0.33533-1.4572-2.3084-2.6941-2.9879-3.0852 0.060164-0.010618 0.09467-0.015041 0.09467-0.015041 1.1343-1.1476 4.2478-6.6402 4.6327-7.3206 0.027428-0.046893 0.039815-0.070782 0.039815-0.070782 0.86354 0.10529 3.4745 0.62023 3.4745 0.62023s-2.7198 6.3252-4.331 9.0486c-1.6059 2.7127-2.9136 3.6364-4.4796 4.7424-1.5634 1.1024-8.4673 5.6643-10.295 6.9526-1.8217 1.2891-6.6703 5.6387-10.904 6.3898-2.0996 0.3716-3.9213 0.41673-5.6493 0.22296-1.728-0.19465-3.3666-0.6273-5.0945-1.2059-0.010618-0.001769-0.021235-0.007078-0.030967-0.012387-0.014157-0.003539-0.027428-0.005308-0.034507-0.007963-3.4568-1.1635-6.2598-2.572-9.1627-5.6997-2.5596-2.757-3.8293-7.9975-4.561-10.691-0.10529-0.38488-0.19819-0.71844-0.2849-0.98475-0.67685-2.127-3.4285-9.9298-4.0124-11.753-0.58749-1.8262-1.0715-3.3498-0.71224-6.4854 0.33533-2.9454 1.7979-9.0061 1.981-9.7529 0.009732-0.050432 0.016811-0.076091 0.016811-0.076091zm39.287 18.153s1.566-1.106 4.3699-0.97237c0 0-0.016811 0.016811-0.016811 0.025659l0.016811-0.008848c-0.078745 0.21235-0.7149 1.9554-0.88477 3.486-0.09644 0.94671-0.55652 3.3365-0.55652 3.3542-0.82284 2.8667-3.5833 4.4495-3.832 4.2912-0.29198-0.1858-0.67154-0.88477 0.56626-4.8494 0-0.19377 0.63792-0.42381 0.77948-0.41496 0.2557-0.044239 0.51228-0.07963 0.76887-0.12387 0 0-0.070782-0.15041-0.33621-0.53086-0.11502-0.18669-0.41496-0.30171-0.60076-0.40788-0.21323-0.11502-1.2918-0.5928-1.2918-0.60165 0.20276-1.7024 0.88877-3.0122 1.0017-3.2187zm-41.817-33.579c-0.29198 4.0523 1.8934 9.9192 4.3265 11.14 2.4243 1.2201 8.9097 3.3613 11.433 6.2377 2.5128 2.8755 2.5835 5.9289 1.9996 8.0966-0.18669 0.89274-0.57599 1.9553-0.88477 2.7251-0.16988-0.044239-0.34595-0.070782-0.52202-0.088478-0.51317-0.061934-1.328-0.1159-1.497 0.52202-0.007963 0.025658-0.016811 0.044238-0.016811 0.044238 0.07963 0.2734 0.14156 0.61049 0.10617 0.7963-0.045124 0.2035-0.11502 0.3893-0.15041 0.47866-1.3891 3.9019-2.1235 4.2372-2.4685 4.2106-0.29198-0.016811-1.5395-2.9543-0.46893-5.7342 0.007963-0.016811 0.016811-0.034506 0.016811-0.052202 0.54856-1.2396 1.0706-2.142 1.5581-2.956 0.85823-1.4156 1.4068-3.3347 1.4068-3.3347l0.016811 0.03539v-0.027428c0.71755 0.48751 1.3272 1.0803 1.8943 1.7253 0.016811 0.01858 0.025659 0.027428 0.025659 0.036276 0.25747 0.42469 0.65473 0.75117 0.88477 1.2033 0.062819 0.13183 0.10706 0.25658 0.10706 0.35302 0.19376-0.74321 0.16811-1.6448-0.1159-2.3703-0.016811-0.026543-0.016811-0.053971-0.025659-0.07963-1.052-2.8764-3.778-4.5663-6.3093-5.9996-1.6899-0.95556-3.4506-1.7881-5.229-2.5658-5.2113-2.2916-5.2909-3.8134-5.9899-6.22-0.07963-0.30171-0.15041-0.65562-0.2035-1.0449-0.097325-0.76887-0.12387-1.6899-0.12387-2.6012 0-2.2739 0.23004-4.53 0.23004-4.53zm70.591 25.174c-0.016811 0.035391-0.036276 0.061934-0.061934 0.09644-1.044 1.8589-2.4499 3.8496-4.1682 5.1414-1.9996 1.5041-2.9808 2.6632-8.5283 1.3528-2.1765-0.52113-4.3805-0.99006-6.6004-1.2643-2.841-0.36276-6.6013-0.46008-8.6717 1.9279-0.009732 0.01858-0.01858 0.01858-0.035391 0.036276-0.01858 0-0.026543 0.017695-0.03539 0.026543 1.0263-1.7607 2.8755-3.5037 5.9545-4.1407 3.7435-0.77064 10.201 1.4236 12.883 1.92 2.3623 0.43354 6.7517-2.1332 9.2636-5.0963zm-34.257-14.309c2.0005 0.80072 3.1117 2.8092 2.5092 4.6106-0.38045 1.1502-0.29198 2.0704-0.20438 3.2914l0.010617 0.03539v0.018581c0.043354 0.98121 0.26455 1.5032 0.50255 2.1757 0.24066 0.62907 0.53263 1.6289 0.16103 2.6543l-0.46982 1.3979c-0.6273 1.8855-2.8932 2.8145-5.0512 2.0978 0-0.009733 1.4493-0.38045 1.92-1.7695 0.007963-0.017696 0.016811-0.036276 0.016811-0.053087 0.89362-0.1336 1.6731-0.66358 1.9545-1.513l0.49636-1.4599c0.49547-1.4953-0.61049-2.1686-0.67243-4.584-0.088477-1.2475-0.17607-2.4606 0.30967-3.9019 0.39018-1.1688-0.26278-2.4632-1.4829-3.0003zm-5.2954 1.9828c0.61226-1.7872 2.7083-2.734 4.8149-2.1412-1.3015-0.32825-2.6198 0.31852-3.0091 1.4864-0.48663 1.451-1.3095 2.3535-2.1235 3.2914-1.513 1.8934-2.8056 1.7607-3.3002 3.2569l-0.49547 1.459c-0.28401 0.84142 0.016811 1.7262 0.63704 2.3721-0.008848 0.017696-0.01858 0.043354-0.01858 0.061934-0.46804 1.3979 0.46893 2.565 0.46893 2.565-2.1491-0.72463-3.3887-2.8304-2.7614-4.707l0.4707-1.3979c0.32648-1.0449 1.1484-1.6722 1.7342-2.0261 0.60076-0.3893 1.0883-0.67243 1.7165-1.4245l0.025659-0.036275c0.82461-0.91928 1.4608-1.6094 1.8403-2.7596zm37.854-4.477 0.078745 0.007963s-1.106 7.4684-2.9286 10.397c-1.8235 2.9383-3.5648 5.6457-8.0966 5.398 0 0 2.6278-0.7609 1.7881-2.8233-0.061934-0.14953-0.10617-0.29994-0.14156-0.4592 1.2121-0.68128 2.3004-1.1944 3.2914-2.2296 1.3183-1.3723 2.3615-3.0631 3.1135-4.7964 0.32825-0.77064 0.60342-1.5572 0.82461-2.3623 0 0 0.58395-2.6817 1.7156-3.079 0.12475-0.017695 0.23889-0.036275 0.35479-0.053086zm-35.509-7.3003c0.9644 2.0969 8.5646 4.6451 10.645 3.5745-0.009733 0.044239-0.2035 2.7782-0.19554 4.4062 0.008847 1.6377 0.56714 7.9638 3.3374 9.6193 0.008848 0-0.68304 0.82196 0.20173 3.3975-0.21234-0.070782-3.6807-1.3537-4.9273-4.1593-1.2918-2.8852-0.035391-10.636-4.6716-12.255-4.6734-1.5121-8.3443 5.4334-11.124 6.9552-2.7676 1.5209-6.4491 0.34418-6.4491 0.34418 2.1354-1.4228 2.219-2.4515 2.2209-2.5783l-1.27e-4 -0.013201c3.202 0.35391 7.4516-4.354 8.4505-5.6634 0.99183-1.2997 2.5128-3.6276 2.5128-3.6276zm-22.148-12.069 0.053972 0.035391 0.017695 0.008848c0.078745 0.079629 0.16811 0.16811 0.24774 0.25658 0.66358 0.99979-0.48663 3.4869-0.48663 3.4869-0.29198 0.72551-0.5229 1.4687-0.71755 2.2208-0.66358 2.5747-0.91132 5.7687 0.15041 8.3346 0.044239 0.088477 0.71755 1.2564 0.68216 1.2918-0.061934 0.053087-0.12475 0.10617-0.19554 0.15041-0.070782 0.053086-0.14068 0.09821-0.21146 0.14156-1.8412 1.0794-0.39815 3.1498-0.28313 3.3091-3.7523-2.5216-3.5223-5.7333-3.1949-9.1751 0.31852-3.4338 3.9372-10.061 3.9372-10.061zm49.14-27.358 1.0255 0.43354c26.375 12.688 20.562 32.728 19.049 36.559-1.3714 3.4418-4.0965 6.8393-5.2901 8.777-1.3988-1.5307-3.2825-3.8134-4.699-6.3704 0.7786-1.1767 2.2916-2.7782 3.9726-5.114 1.1944-1.6722 3.371-6.2023 3.371-11.741 0-6.2996-2.8136-13.917-13.068-20.155-0.035391-0.026543-0.070782-0.053086-0.11502-0.070782-0.12387-0.07963-0.25658-0.15926-0.3893-0.23004-1.3183-0.7963-2.6278-1.4953-3.8567-2.0881zm-40.911 22.713c4.4071-1.0971 11.565 5.5741 15.776 9.0875 3.5842 3.1675 5.1512 3.4683 5.4697 3.5568 0.32648 0.12387 1.751 0.8308 6.5031 0.4592 5.4865-0.2557 15.219-1.2643 18.077 2.2748 0 0.097325-6.9189-0.68128-11.583 0.070782-4.6362 0.9821-11.218 1.6112-14.139 0.5928-2.9374-0.94759-7.8126-5.4237-10.909-8.9981-3.2471-3.3896-9.1937-6.9287-9.1937-7.0437zm14.977-28.951c2.1146 0 4.3796 0.15041 6.8128 0.49547 0.87593 0.15041 1.7253 0.31852 2.5481 0.48663l0.12387 0.026543c-25.19-4.2912-30.047 14.608-30.135 19.2-0.061935 3.3533 0.15926 5.6183 0.053086 6.9632-3.663 1.5307-7.5825 2.0881-7.5825 2.0881 0.21234-2.1235 0.2035-6.8128 1.1148-10.511 0.85823-3.4772 6.6623-18.66 27.065-18.748z" fill="#B1BABF"/> <path d="m231.69 67.298c13.219-5.3971 33.073 1.6811 33.25 1.743 0.17695 0.053086 20.288 6.3792 27.578 18.66 7.3259 12.343 6.3527 23.579 1.92 31.781-4.4318 8.2107-8.6973 12.838-8.5823 15.581 0.10617 2.734 1.2829 4.9813 1.2829 4.9813s-5.0786 10.148-12.555 13.015c0 0-4.1319 10.679-8.5912 14.218-4.4416 3.5391-11.077 7.1844-17.067 11.98-2.3623 1.8934-5.0786 3.0613-7.9718 3.6541 0.19465 0.14156 0.38045 0.28313 0.5751 0.42469 12.042-0.31852 30.056-1.7784 48.91-6.8481 33.206-8.9362 64.748-39.249 64.748-39.249-7.8913 25.818-11.414 34.347-32.001 48.928-20.598 14.572-52.848 19.023-52.848 19.023-0.36276 1.3979-2.4951 2.8667-2.4951 2.8667s3.3002 1.221 11.405 7.3171c8.0957 6.0961 5.9014 5.7953 8.485 7.5383 2.427 1.6291 3.8701 1.2984 4.0362 1.2523l0.016105-0.00476c0.7786 1.566 0.87681 3.893 0.87681 3.893 1.0785 1.0175 6.3606 6.0607 1.4501 11.281-4.9193 5.2202-10.6 0.3716-10.6 0.3716-2.0084 0.42469-3.9638-0.23889-3.9638-0.23889s-10.511 6.6181-20.951-0.5928c-8.4947-5.8572-7.9815-12.803-7.4852-15.2-2.8676 1.6457-5.9466 2.9286-9.1043 3.9195-8.5213 2.672-19.395 3.778-30.198 0.1858-7.0959-2.3889-12.971-6.5296-17.607-11.122-4.6451-4.6008-8.078-9.6794-10.316-14.254-0.33621-0.69897-0.65473-1.3891-0.93786-2.0615-0.74321 1.7695-4.3 8.4859-15.315 8.0072-12.679-0.54856-17.076-12.166-17.076-12.166s-1.9553-0.65473-3.3002-2.1942c0 0-7.4498 0.44239-8.2284-6.6889-0.76975-7.1313 6.4942-7.963 7.9718-8.1222 0 0 1.4687-1.8049 3.0348-2.5835 0 0 0.88477 1.2829 3.9903 1.451 3.1056 0.16811 1.1767-0.92016 11.316-0.89362 10.14 0.017696 13.502 1.044 13.502 1.044s-0.81399-2.4597-0.25658-3.7957c0 0-23.031-23.004-30.666-47.052s-5.2998-32.967 3.9726-58.324c0 0 6.8747 43.203 27.977 70.348 12.042 15.492 25.588 27.57 35.01 35.09 0.21234 0 0.43354 0.008848 0.64588 0.008848-2.0084-2.2385-3.5391-4.8663-4.3-7.8745-1.8846-7.4321-4.9724-14.342-6.3881-19.845-1.4156-5.5121 1.7342-16.528 1.7342-16.528-4.2292-6.7774-2.1677-17.934-2.1677-17.934s2.2916-1.0883 4.0346-3.2029c1.7342-2.1235 1.1325-8.3877 2.5481-17.607 1.4156-9.2193 7.4144-18.757 20.704-24.181zm34.285 134.82c-0.30967-0.3893-0.82284-0.008848-0.82284-0.008848-3.0082 2.4597-3.6895 7.0959-3.716 8.37-0.017696 1.2741-3.724 9.4759-4.4504 11.75-0.035391 0.089363-0.66358 2.0438-0.81399 3.2206-0.22119 1.8138-0.15041 7.3613 8.83 10.547 8.2293 2.9118 15.103-2.5481 16.209-3.4949 2.3093 0.16811 3.9903-1.0352 4.8043-1.8403 0.33621-0.32737 0.53971-0.58395 0.58395-0.64588-0.87593 2.9109-2.734 3.6276-3.8665 3.7868-0.36276 0.053086-0.66358 0.053086-0.82284 0.035391 0.026544 0.079629 0.035391 0.13272 0.053087 0.20438 0.13272 0.48574 0.10617 0.77772 0.10617 0.77772s0.26543 0.13272 0.72551 0.15926c0.65473 0.035391 1.6988-0.12387 3.0445-1.1502 0.22119-0.17696 0.39726-0.36276 0.57422-0.54856-0.52202 1.106-0.11502 2.4331 0.97414 3.0259 1.1316 0.61138 2.5473 0.19465 3.1578-0.93698 0.61934-1.1245 0.19465-2.549-0.93786-3.1595-0.83169-0.45123-1.8129-0.33621-2.5128 0.19465 0.68128-1.1237 0.7609-2.2827 0.71667-3.0073 0-0.12475-0.07963-0.68216-0.088478-0.68216l0.008848-0.008847c-0.45124-0.11502-0.87593-0.27428-1.2829-0.46893-0.45123-0.22119-0.87593-0.50432-1.3006-0.82284-0.56626-0.41584-2.2199-1.9819-2.6269-2.3889-0.5406-0.54856-1.098-1.0883-1.6466-1.6368-0.66358-0.65473-2.1235-1.9996-2.7959-2.5128-0.13272-0.10529-1.628-1.2918-1.8846-1.4953 0.38045 0.3893 3.0171 3.2294 3.6187 4.8309 0.3893 0.95556 0.61049 2.15 0.54856 3.1852-0.017695 0.29198-0.061934 0.54856-0.11502 0.78745 0 0 0.008848 0.017696 0.017695 0.017696-0.008847 0-0.017695-0.008848-0.026543-0.008848-0.088477 0.42469-0.22119 0.7963-0.39815 1.0263-0.32737 0.39903-0.84054 0.62023-1.2298 0.73436 0.008847 0 0.017695 0.008848 0.026543 0.017696 0.5928 0.46893 1.2033 0.89362 1.7076 1.4687-5.0874 4.8486-11.891 4.8574-15.82 2.9286-3.8311-1.8748-4.9636-4.1938-4.477-7.3879-1.0352-0.22119-2.035-0.86708-2.4154-2.4597 0.035391 0.026543 0.080514 0.044239 0.1159 0.07963 0.88477 0.71667 2.3261 0.97325 3.2197 0.12387 0.80514-0.7609 1.4333-2.0173 1.9996-3.371 0.51317-1.2387 0.95556-2.5128 1.5307-3.7249 0.23004-0.49547 0.3893-1.0352 0.47778-1.566 0.25747-1.513-0.061934-3.1233-0.80514-4.4593-0.80514-1.4422-1.2298-3.4241-0.53971-5.4767 0.69897-2.0438 1.8669-2.8224 2.2031-3.1409 0.34506-0.30967 0.32737-0.62819 0.14156-0.86708zm-0.53086 10.564c0.7786 1.1325 1.7165 3.0003 1.5307 5.2644 0 0-0.17696 1.1679-0.41496 1.858-0.38134 1.0706-0.7087 1.9377-0.98298 2.6366 4.5221 2.035 8.8035 4.5743 11.626 6.5031 0.39815-0.13272 0.85912-0.35391 1.1767-0.75206 0.2035-0.26543 0.34595-0.70782 0.44239-1.221 0.2035-1.0263 0.16014-2.4243-0.3893-3.9284-0.46008-1.3095-1.4687-2.7251-2.4597-3.8213-0.12298-0.09821-0.25658-0.18669-0.38045-0.28401-1.0086-0.72551-2.0438-1.4156-3.0967-2.0881-1.4599-0.93786-2.9463-1.8403-4.4593-2.7074-0.71667-0.41584-1.4333-0.81399-2.1588-1.221-0.15041-0.088477-0.29198-0.15926-0.43354-0.23889zm-38.09-31.374c-17.536-5.8837-36.559 2.8136-40.735 8.0957-0.17696 0.21235-0.33621 0.43354-0.46893 0.67243-0.017696 0.026544-0.026543 0.07963-0.053087 0.097326 0 0-0.10617 0.15926-0.22119 0.48662-1.6634 4.9724 8.4142 26.101 27.437 32.489 19.04 6.3881 39.62-3.8222 41.478-9.3609 0.13272-0.39815 0.15926-0.72552 0.15926-0.72552 0.1858-1.3095-0.10617-3.1763-0.83169-5.3617-2.8313-8.4054-12.245-21.518-26.764-26.393zm11.106 17.543c6.6818 3.9169 11.654 8.1337 14.189 11.153-3.7152-2.7401-8.5451-5.7829-14.218-8.6726 0.03716-0.83169 0.047778-1.659 0.029197-2.4809zm-54.326-24.248-0.10701 0.016013c-0.28313 0.079629-0.48662 0.31852-0.407 0.7786 0.07963 0.45124 0.54856 1.7872-0.14156 3.8311-0.68128 2.0615-2.2119 3.3798-3.7249 4.0434s-3.371 2.1588-3.893 4.6097c-0.51317 2.442-1.8403 5.6626-1.4687 7.786 0.13272 0.81399 0.93786 1.9288 2.787 1.858-1.2652 1.044-2.4508 0.9644-3.4241 0.52202-1.5307 2.8224-3.8311 3.9815-8.0249 3.1675-4.2823-0.82284-9.7148-4.937-10.838-11.883 0-0.11797 1.4378-0.13149 2.0245-0.13272h0.25818c-0.24774-0.32737-0.52202-0.81399-0.53971-1.3272-0.008847-0.29198 0.11502-0.66358 0.30082-1.0617 0.044238-0.061934 0.23004-0.407 0.26543-0.46893 0.51317-0.9644 1.5041-1.8757 2.442-2.4243 0.008848-0.008848 0.017695-0.017696 0.026543-0.017696 1.6368-0.9821 4.2027-1.5749 5.8307-1.6634 0.044238-0.008848-0.5751-0.026543-0.88477-0.017696-2.0173 0.008848-4.0257 0.2035-6.0253 0.48663-1.7695 0.24774-3.4683 0.54856-5.0963 0.53971-0.52202-0.008848-1.0263-0.044239-1.513-0.13272-0.45124-0.088478-0.90247-0.22119-1.3449-0.407 0 0-1.6899 1.3537-1.7607 3.6718-0.17695-0.95556-0.94671-1.7342-1.9553-1.8846-1.2829-0.19465-2.4862 0.68128-2.6809 1.973-0.19465 1.2829 0.69897 2.4862 1.9819 2.6809 1.2741 0.19465 2.4774-0.69012 2.672-1.973 0.008848-0.035391 0.008848-0.061934 0.008848-0.097325 0.035391 0.27428 0.088477 0.56626 0.16811 0.85823 0.22119 0.82284 0.52202 1.3979 0.84054 1.8403 0.74321 1.0617 1.566 1.221 1.566 1.221 0.008848 0 0.11502-0.15041 0.12387-0.16811 0.053087-0.061934 0.49547-0.52202 0.58395-0.52202-0.54856-0.36276-2.8136-2.1058-1.4333-5.8837 0 0-0.07963 3.4329 2.7605 5.2556 0.30967 1.4156 2.5393 9.9095 10.865 12.546 9.0866 2.8932 12.581-1.4422 13.404-3.079 0.36276-0.74321 1.2918-3.0613 1.2918-3.0613 0.78745-2.2562 2.787-11.033 3.5391-12.059 0.74321-1.0263 2.9994-5.1317 2.0881-8.9097 0 0-0.1858-0.61934-0.67243-0.49547zm160.84-21.847c-0.035391 0.070782-1.1237 0.97325-2.8844 2.3977-0.75206 0.61934-1.5837 1.2918-2.5216 2.035-10.246 8.0957-31.631 22.65-66.447 28.914-8.4407 1.513-17.041 2.3446-25.42 2.7163 1.3811 1.4245 2.6455 2.8755 3.7957 4.3531 0 0 3.663-0.2734 4.1673-0.31852 6.3173-0.53086 12.635-1.2918 18.881-2.4243 15.448-2.787 27.127-6.7331 32.666-8.8212 1.3006-0.51317 2.5393-1.0352 3.7514-1.566l-0.16722 0.14156s-22.686 13.502-57.131 15.97c1.0971 1.6368 2.0704 3.256 2.8932 4.8486 10.715-0.60165 21.562-2.0969 31.816-4.937 6.5562-1.8226 13.006-4.123 19.164-7.034 6.1934-2.9198 12.272-6.4235 17.616-10.732 3.4772-2.8136 6.742-5.8395 9.7414-9.1751 4.123-4.5743 7.8833-10.024 9.9183-15.882l0.15041-0.46008zm-179.24 29.472c-1.4422 0.28313-3.1056 0.7963-4.2646 1.566-1.3537 0.87593-2.2208 1.9642-2.6809 2.8932-0.23004 0.47778-0.3893 0.92016-0.38045 1.2475 0.017695 0.51317 0.25658 0.9644 0.48662 1.3095 0 0 8.0957 0.43354 13.192 1.8315 0.19465-0.72552 0.46008-1.6191 0.80514-2.6986 0.22119-0.69012 0.52202-1.2652 0.84938-1.7872 1.221-1.9288 3.0259-2.787 4.3442-3.2206-2.1942-0.35391-4.7601-0.64588-6.9632-0.84054-1.0971-0.097325-2.1942-0.17696-3.3002-0.23004-0.69012-0.035391-1.3891-0.053086-2.0881-0.070782zm23.542 6.6323c3.9293-0.87239 10.648-1.2829 18.563-0.34064-0.51759 0.64854-1.0148 1.3201-1.4935 2.0129-6.4606-1.1529-12.328-1.6306-17.07-1.6722zm-38.486-101.27-0.17695 0.50432c-1.1414 3.371-1.5749 7.0516-1.7607 10.591-0.31852 5.9899 0.24774 12.015 1.513 17.864 1.3449 6.2288 3.4949 12.219 6.1403 18.005 2.6986 5.928 6.0342 11.546 9.7591 16.881 4.5743 6.5739 9.8033 12.697 15.466 18.359 2.4243 2.4331 4.937 4.7866 7.5117 7.0693 0.31852 0.27428 2.8932 2.8401 3.1498 2.7251 1.6103-0.76975 3.3621-1.4776 5.229-2.1323-25.72-22.429-35.745-46.601-36.055-47.353l0.070781 0.12387c0.31852 0.58395 0.63704 1.1679 0.9821 1.7607 0.63704 1.044 1.4333 2.4331 2.4685 4.123 4.9547 7.9276 11.529 16.457 20.35 25.331 0.026543 0.026543 10.98 10.83 15.652 14.944 1.8138-0.49547 3.7072-0.90247 5.6714-1.221-6.5031-5.3794-12.918-11.272-18.784-17.616-29.622-32.1-35.285-61.943-37.187-69.959zm61.492 43.425s-0.008848 0.026544-0.017696 0.070782c-0.1858 0.75206-1.6457 6.8128-1.9819 9.7591-0.044238 0.3893-0.070782 0.75206-0.088477 1.0971-0.14156 2.4154 0.28313 3.7868 0.80514 5.3883 0.58395 1.8226 3.3356 9.6263 4.008 11.75 0.088477 0.26543 0.1858 0.60165 0.29198 0.9821 0.72551 2.6986 1.9996 7.9364 4.5566 10.697 2.9029 3.1233 5.7068 4.53 9.1663 5.6979 0 0 0.017695 0 0.026543 0.008848 0.017695 0 0.026543 0.008847 0.035391 0.008847 1.7253 0.58395 3.3621 1.0086 5.0963 1.2033 1.7253 0.19465 3.5479 0.15041 5.6457-0.22119 4.2372-0.75206 9.0857-5.0963 10.908-6.3881 1.8226-1.2918 8.7327-5.8484 10.291-6.9543 1.5652-1.106 2.8755-2.0261 4.4849-4.7424 1.6103-2.7251 4.3265-9.0512 4.3265-9.0512s-2.6101-0.51317-3.4772-0.61934c0 0-0.008848 0.026543-0.035391 0.070782-0.3893 0.68128-3.5037 6.1757-4.6353 7.3259 0 0-0.036276 0-0.089362 0.017696-0.407 0.070781-2.0261 0.3893-2.8313 0.99095-0.92901 0.68128-4.2912 5.6802-8.6885 7.5648 0.41584-2.4774-1.1847-3.7603-1.6014-3.716-0.407 0.044239-0.72463 1.0175-0.81399 1.2652-0.088478 0.24774-0.93786 1.92-1.221 2.7074-0.29198 0.78745-0.20261 0.84938-0.20261 0.84938-0.7087-0.026543-1.4165-0.061934-2.1155-0.11502 0.67243-1.2741 1.2741-2.5393 1.8403-3.7957 0.36824-0.95261-0.50928-1.2316-0.67976-1.2762l-0.028058-0.006771-0.008847-0.008848c-0.62819-0.097325-1.2555-0.19465-1.8837-0.31852h-0.062819c-0.78745-0.14156-1.2643 0.35391-1.3626 0.65473-0.07963 0.19465-0.15837 0.39815-0.23889 0.5928-0.29198 0.69012-0.60165 1.3891-0.90247 2.0792-0.008848 0.044239-0.017695 0.088478-0.044239 0.12387-0.35391 0.87592-0.053086 1.6103-0.053086 1.6103-0.23889-0.017696-0.82284 0-1.8138-0.19465-0.46008-0.097325-1.0794-0.3716-1.0794-0.3716 0.34506-0.28313 0.55741-0.82284 0.55741-0.82284 0.62819-1.5307 1.5926-3.9019 1.5926-3.9019s0.38045-1.0263-0.28313-1.221c-0.90247-0.22119-1.7961-0.46893-2.6897-0.73436-0.68128-0.15041-0.97325 0.407-1.044 0.5928-0.14156 0.35391-0.38045 0.91132-0.46893 1.1591-0.34506 0.9821-0.68128 1.9554-1.0175 2.9198 0 0.017696 0 0.026543-0.008848 0.044239-0.21235 0.61934-0.044239 1.2121-0.044239 1.2121s-0.86708-0.17696-1.3183-0.30082c-0.46008-0.11502-1.1502-0.60165-1.1502-0.60165 0.1159-0.10617 0.24774-0.42469 0.34506-0.64588 0.407-1.451 0.80514-3.2648 1.1502-4.7866 0.026544-0.21234 0.035391-0.84054-0.61049-1.106-0.76091-0.28313-1.5218-0.5751-2.265-0.88477-0.66358-0.2035-0.95556 0.34506-1.0617 0.66358-0.30082 1.3714-0.64588 3.0171-0.87593 4.2115-0.097325 0.83169 0.28313 1.4156 0.28313 1.4156-0.35302-0.079629-1.0617-0.3893-1.628-0.62819-0.38045-0.15926-1.2033-0.70782-1.2033-0.70782 0.42469-0.035391 0.66358-0.93786 0.66358-0.93786 0.46893-0.9821 0.78745-1.8315 1.1591-2.7605 0.008848-0.044238 0.035391-0.079629 0.044239-0.12387 0.008848-0.026543 0.017695-0.044239 0.035391-0.088477 0.36276-0.9821-0.31852-1.5041-0.43354-1.5837-0.99095-0.49547-2.1058-1.0794-2.1146-1.0794-0.56626-0.30082-0.93786 0.097325-1.0617 0.48662-0.3893 1.106-0.99979 2.1146-1.2121 3.3356-0.097325 0.69012-0.044238 1.1679-0.044238 1.1679-1.3449-0.63704-1.8403-1.6545-1.8403-1.6545 0.31852-0.38045 0.75206-1.743 0.7609-3.0082 0.008848-1.2741 0.088477-2.4597-0.50432-2.8844-0.5928-0.41584-1.5837 0.64588-2.0969 1.4068-0.50432 0.75206-0.61934 1.1944-0.61934 1.1944v0.097325c-2.3889-4.1584-2.0527-10.193-2.38-11.299-0.32737-1.106-1.7253-2.5747-1.7253-2.5747-0.026543-0.21235-0.035391-0.50432-0.035391-0.85823 0.035391-2.3093 0.67243-7.0959 0.7609-7.7683 0.008848-0.053086 0.008848-0.079629 0.008848-0.079629-0.74321-0.44239-3.1498-1.6014-3.1498-1.6014zm31.914-60.023c-20.403 0.088477-26.207 15.271-27.065 18.748-0.91132 3.6984-0.90247 8.3877-1.1148 10.511 0 0 3.9195-0.55741 7.5825-2.0881 1.9819-0.81399 3.893-1.8669 5.3538-3.2737-0.3371 0.3893-5.8404 6.6535-11.724 7.3171 0 0-1.2918 5.6714-2.8667 8.5381-1.5572 2.8755-4.6097 4.8397-4.6097 4.8397s-0.23004 2.2562-0.23004 4.53c0 0.91132 0.026543 1.8315 0.12387 2.6012 0.053087 0.3893 0.12387 0.74321 0.2035 1.044 0.69897 2.4066 0.7786 3.9284 5.9899 6.22 1.7784 0.7786 3.5391 1.6103 5.229 2.5658 2.5305 1.4333 5.2556 3.1233 6.3084 5.9988 0.008847 0.026544 0.008847 0.053087 0.027428 0.07963 0.28224 0.72551 0.30879 1.628 0.11414 2.3712 0-0.097325-0.044238-0.22119-0.10617-0.35391-0.22916-0.45124-0.62819-0.7786-0.88477-1.2033 0-0.008848-0.007963-0.017696-0.026543-0.035391-0.56626-0.64588-1.1767-1.2387-1.8934-1.7253v0.026543l-0.017695-0.035391s-0.54856 1.92-1.4068 3.3356c-0.48662 0.81399-1.0086 1.7165-1.5572 2.9551 0 0.017696-0.008848 0.035391-0.017696 0.053087-1.0706 2.7782 0.17696 5.7156 0.46893 5.7333 0.34506 0.026543 1.0794-0.30967 2.4685-4.2115 0.035391-0.088477 0.10617-0.27428 0.15041-0.47778 0.035391-0.1858-0.026543-0.52202-0.10617-0.7963 0 0 0.008847-0.017695 0.017695-0.044238 0.16811-0.63704 0.9821-0.58395 1.4953-0.52202 0.17696 0.017696 0.35391 0.044239 0.52202 0.088477 0.07963 0.017696 0.1513 0.035391 0.21235 0.053087 0.53086 0.1858 0.82372 0.54856 0.81399 0.74321 0 0-0.28313 0.17695-0.49547 0.50432-0.2035 0.32737-0.55741 1.1679-0.65473 1.3979-0.35391 0.87593-0.60961 1.5837-0.91132 2.4597-0.017696 0.026543-0.017696 0.053086-0.017696 0.07963-0.24982 0.74165 0.38208 1.0562 0.53421 1.12l0.032041 0.012542c0 0.008848 0.088478 0.035391 0.097326 0.035391 0.68128 0.12387 1.4156 0.27428 2.1765 0.43354 0 0 1.0184 0.1858 1.3626-0.72552 0.32737-0.9644 0.61049-1.7607 0.97325-2.7251 0.017696-0.053087 0.044239-0.11502 0.070782-0.16811v-0.008848l0.026543-0.061934s0.22119-0.66358 0.3194-1.0617c0.087592-0.3716 0.47778-1.0086 0.8308-1.0086 0.3716 0 0.87593 0.17696 0.82284 0.92901-0.053087 0.75206-0.2035 1.2475-0.23004 1.336-0.008847 0.035391-0.017695 0.07963-0.017695 0.10617-0.33621 1.1856-1.0175 3.6807-1.0175 3.6807-0.32737 0.95556 0.71755 1.2564 0.71755 1.2564 0.63615 0.17696 1.5917 0.32737 2.2641 0.53086 0.044239 0.008848 0.07963 0.017695 0.13272 0.026543 0 0 0.7963 0.25658 1.0794 0.15041 0.29198-0.10617 0.47778-0.54856 0.53086-0.69012 0.044238-0.14156 1.106-3.8488 1.221-4.2469 0.080515-0.30082 0.044239-0.90247-0.11502-1.2475 0.053086 0.008848 1.0175 0.17696 1.5581 0.35391 0.45035 0.15926 1.052 0.39815 1.3528 0.62819-0.46008 0.23004-0.7609 0.99095-0.78745 1.0971-0.008847 0.017695-0.017695 0.026543-0.017695 0.035391-0.070782 0.24774-0.15926 0.48662-0.23004 0.72551-0.33621 1.0175-0.7786 2.3181-1.1237 3.3444-0.053086 0.27428-0.10617 0.95556 0.69012 1.2564l0.12387 0.044239c0.66358 0.24774 1.505 0.54856 2.1235 0.7963 0 0 0.2035 0.07963 0.46008 0.07963 0.30967 0 0.69101-0.11502 0.86708-0.64588 0.15926-0.48662 0.5229-1.566 0.84054-2.5481 0.31056-0.97325 0.5928-1.858 0.60165-1.9642 0.008848-0.1858 0.23004-0.53086 0.36276-0.64588 0.36276-0.026544 0.62819 0.026543 0.87593 0.15041 0.29198 0.14156 0.62819 0.50432 0.7609 0.63704-0.19465 0.33621-0.50432 1.1944-0.58395 1.6634-0.061934 0.39815-0.53086 2.1058-0.75206 2.9021-0.026544 0.061934-0.044239 0.15041-0.069897 0.22119-0.018581 0.026543-0.009733 0.053086-0.018581 0.088477-0.008847 0.026543-0.017695 0.044239-0.008847 0.061934-0.12387 0.82284 0.67243 1.2387 0.67243 1.2387 0.70782 0.33621 1.3891 0.66358 2.0093 0.97325 0 0 0.087592 0.035391 0.09644 0.035391 0 0 0.84938 0.27428 1.1325-0.56626 0.008848-0.026543 0.026543-0.053086 0.035391-0.061934 0.28401-0.88477 0.50521-1.6191 0.75206-2.5216 0.061934-0.24774 0.13272-0.49547 0.19554-0.74321 0.01681-0.026543 0.025658-0.097325 0.035391-0.19465 0.01681-0.061934 0.14068-0.50432 0.17607-0.7786 0.026543-0.14156 0.026543-0.27428 0.017695-0.3716 0 0 0.46982 0.1858 1.0175 0.42469 0 0.008847 1.0794 0.48662 1.2918 0.60165 0.1858 0.10617 0.48663 0.22119 0.60165 0.41584 0.26543 0.3716 0.33621 0.52202 0.33621 0.52202l-0.76975 0.12387c-0.14156-0.008848-0.7786 0.22119-0.7786 0.41584-1.2387 3.9638-0.85823 4.6628-0.56537 4.8486 0.24685 0.15926 3.0073-1.4156 3.8302-4.2823 0-0.026543 0.46008-2.4154 0.55829-3.3621 0.16722-1.5307 0.80426-3.2737 0.88477-3.486l-0.01858 0.008847c0-0.008847 0.01858-0.026543 0.01858-0.026543-2.8056-0.13272-4.3717 0.97325-4.3717 0.97325 0.17696-0.42469 0.43354-0.78745 0.70782-1.1148 0.017696-0.017696 0.026544-0.017696 0.035391-0.035391 2.0704-2.3889 5.8307-2.2916 8.6708-1.9288 2.2208 0.27428 4.4239 0.74321 6.6004 1.2652 5.5564 1.3095 6.5305 0.15041 8.5292-1.3537 1.7262-1.2918 3.1321-3.2825 4.1761-5.1405 0.01858-0.035391 0.044238-0.061935 0.061934-0.097325 0.46008-0.70782 0.7786-1.221 0.7786-1.221s-1.2564-3.4064-0.76975-6.6446c0.49547-3.2294 2.8755-8.5469 2.8755-8.5469-4.4239-4.1938-4.937-12.918-4.937-12.918 0.27428 1.7695 0.99095 3.5391 1.92 5.2025 1.4165 2.557 3.3002 4.8397 4.699 6.3704 1.1936-1.9377 3.9187-5.3352 5.2901-8.777 1.513-3.8311 7.3259-23.871-19.049-36.559l-1.0255-0.43354c-0.56714-0.27428-1.1157-0.52202-1.6377-0.76091-0.53086-0.23889-1.0352-0.45123-1.513-0.63704-0.36276-0.15041-0.70782-0.28313-1.0352-0.407-0.25658-0.097325-0.49459-0.1858-0.71578-0.27428-0.78833-0.29198-1.4431-0.50432-1.9208-0.65473-0.097325-0.035391-0.1858-0.061934-0.28313-0.097325-0.97325-0.30967-4.6981-1.4333-9.3432-2.3977l-0.12387-0.026543c-0.82284-0.16811-1.6722-0.33621-2.5481-0.48663-2.4331-0.34506-4.6981-0.49547-6.8128-0.49547zm-1.5988 56.787c0.3893-1.1679 1.7076-1.8147 3.0091-1.4864 0.07963 0.017696 0.15838 0.034507 0.23004 0.061935 0.085823 0.028312 0.16722 0.062819 0.25039 0.09644 1.2201 0.53706 1.8731 1.8315 1.4829 3.0003-0.48574 1.4413-0.39815 2.6543-0.30967 3.9019 0.061934 2.4154 1.1679 3.0887 0.67243 4.584l-0.49636 1.4599c-0.28136 0.84938-1.0608 1.3794-1.9545 1.513-0.41673 0.053087-0.85912 0.053087-1.3015-0.088477-1.3696-0.46008-2.1403-1.8589-1.7156-3.1056 0.070782-0.21234-0.053971-0.44239-0.27516-0.5229-0.22119-0.069897-0.45035 0.044239-0.52113 0.24862-0.41496 1.2564-1.8757 1.9023-3.256 1.4422-0.44239-0.15041-0.7963-0.41584-1.0971-0.72551-0.62023-0.64588-0.92105-1.5307-0.63704-2.3721l0.49547-1.459c0.49459-1.4962 1.7872-1.3634 3.3002-3.2569 0.81399-0.93786 1.6368-1.8403 2.1235-3.2914zm11.184-7.548s0.034506 0.044239 0.053086 0.070782c0.13272 0.19465 0.75117 1.0538 1.6988 1.9642 0.16811 0.16811 0.34418 0.32737 0.53086 0.48751 0.008848 0.007963 0.025658 0.016811 0.034506 0.034506 0.69101 0.5751 1.505 1.106 2.4437 1.4165 2.856 0.9644 7.0242 0.28224 11.492-0.53175 0.39018-0.06105 0.76975-0.11414 1.1511-0.15926 4.008-0.4592 7.5303 0.42558 7.5303 0.42558l0.007963 0.025658-0.078745-0.007963c-0.1159 0.016811-0.23004 0.035391-0.35479 0.053086-1.1316 0.39726-1.7156 3.079-1.7156 3.079-0.22119 0.80514-0.49636 1.5917-0.82461 2.3623-0.75206 1.7333-1.7952 3.4241-3.1135 4.7964-0.99095 1.0352-2.0792 1.5484-3.2914 2.2296l-0.009732-0.008848c-0.016811 0-0.69897 0.21235-1.0608 0.2557-2.7446 0.3371-8.5124-0.54768-11.281-2.442-0.027428-0.008848-0.045124-0.017696-0.061934-0.025659-2.7791-1.6554-3.3374-7.9815-3.3462-9.6193-0.007963-1.628 0.1858-4.3619 0.19554-4.4062zm-32.765-15.644c0.20261 0.07963 3.4143 1.4864 6.2456 4.185 0.28401 0.26632 0.55829 0.5406 0.82461 0.82284 3.0772 3.3453 5.9899 6.4066 8.8477 7.3622 0.92901 0.30967 1.9102 0.38045 2.8047 0.3371 0.008848 0 0.025658 0 0.045123-0.009732 0.24685-0.008848 0.48574-0.026543 0.7149-0.053087 1.4687-0.1858 2.6375-0.5751 2.6375-0.5751s-1.5209 2.3278-2.5128 3.6276c-0.99891 1.3095-5.2485 6.0173-8.4505 5.6634-0.025658 0-0.053086-0.017696-0.079629-0.017696-3.3542-0.16811-8.4938-2.9383-10.477-4.8583-0.26455-0.26543-0.67154-0.84054-0.68039-0.84054-0.061934 0.053087-0.12475 0.097325-0.19554 0.14156 0.070782-0.044239 0.1336-0.097325 0.19554-0.15041 0.035391-0.035391-0.63792-1.2033-0.68216-1.2918-1.0617-2.5658-0.81399-5.7599-0.15041-8.3346 0.19465-0.75206 0.42558-1.4953 0.71755-2.2208 0 0 1.1502-2.4871 0.48663-3.4869-0.07963-0.088477-0.16899-0.17696-0.24774-0.25658l-0.017695-0.008848c0-0.007963-0.009733-0.016811-0.026544-0.035391z" fill="#0A0B09"/> <path d="m252.84 214.91c-7.0481 4.4424-22.778 8.5522-37.928 3.471-14.869-4.9928-24.748-17.703-27.912-25.441-0.37072-0.80337-0.46716-2.972 1.705-3.9771 0 0-1.3723 0.19554-2.6083 1.2095 0 0-0.10883 0.16014-0.22031 0.49193-1.6643 4.9645 8.4115 26.097 27.436 32.484 19.035 6.389 39.622-3.8213 41.48-9.3556 0.12741-0.40257 0.15307-0.7264 0.15307-0.7264-0.43177-1.3546-1.2581-2.1987-1.2581-2.1987 1.0582 1.9969-0.027428 3.4612-0.84761 4.0425" fill="#C2242B"/> <path d="m238.43 201.33c-0.010617 0.23889-0.023004 0.47955-0.036276 0.71932-0.62642-0.31763-1.2599-0.63438-1.9049-0.94759-0.238 1.4413-0.58926 2.864-1.0697 4.2593-0.95202-0.55298-1.9253-1.0838-2.9047-1.5935 0.43088-1.3369 0.76887-2.6897 1.0263-4.0514-1.0485-0.47601-2.1199-0.94317-3.2126-1.3997-0.28844 1.2927-0.63438 2.5844-1.0387 3.8709-1.0033-0.46362-2.0173-0.90866-3.0365-1.3263 0.39815-1.2511 0.75914-2.5013 1.0874-3.7452-1.0697-0.4123-2.1571-0.81311-3.2622-1.2006-0.37691 1.2077-0.7671 2.4278-1.1714 3.655-1.0396-0.37337-2.0801-0.72463-3.133-1.0511 0.41673-1.2228 0.84054-2.4305 1.2688-3.6205-1.1148-0.35479-2.2243-0.68835-3.3276-1.0024-0.48751 1.1883-0.95379 2.3995-1.3891 3.6355-1.0626-0.28401-2.1412-0.5406-3.2188-0.77772 0.44858-1.2626 0.95113-2.4933 1.4962-3.6939-1.1493-0.29109-2.2889-0.56183-3.4143-0.81045-0.61049 1.2334-1.1511 2.5074-1.6094 3.824-1.0883-0.18846-2.1854-0.34772-3.2816-0.48397 0.453-1.3864 1.0263-2.7198 1.6961-3.9992-0.70782-0.13537-1.4094-0.26278-2.1022-0.38311 0.15041-0.22739 0.30348-0.453 0.45831-0.67685-6.4606-1.1529-12.328-1.6306-17.07-1.6722 3.9293-0.87239 10.648-1.2829 18.563-0.34064 0.060165-0.076091 0.11856-0.15395 0.18049-0.22827 0.60076 0.070782 1.2086 0.15041 1.8226 0.238 0.54325-0.78745 1.1219-1.5519 1.7333-2.2916 1.0237 0.13183 2.0235 0.28224 3.002 0.44681-0.55652 0.76268-1.0883 1.5484-1.5935 2.3544 1.0847 0.1973 2.1836 0.42204 3.2949 0.67243 0.453-0.82903 0.92459-1.6421 1.4112-2.434 0.93344 0.20084 1.8527 0.41673 2.7561 0.64766-0.41496 0.82018-0.82107 1.6598-1.2183 2.5128 1.0343 0.27605 2.0748 0.57687 3.1215 0.90335 0.32914-0.87681 0.66004-1.7421 0.99006-2.5915 0.8777 0.27251 1.7483 0.5636 2.6127 0.87504-0.25039 0.87681-0.50786 1.7651-0.77418 2.6632 1.0316 0.36718 2.0421 0.75294 3.0348 1.152 0.19642-0.91574 0.3778-1.8253 0.5406-2.7251 0.86531 0.35922 1.7244 0.73967 2.5924 1.1458-0.089362 0.91662-0.20261 1.8403-0.33887 2.7658 1.0352 0.46274 2.0456 0.93963 3.0295 1.428 0.078745-0.93167 0.12741-1.8633 0.14333-2.7906 0.883 0.45831 1.7695 0.94317 2.6658 1.4546 0.041584 0.93521 0.044239 1.8695 0.005309 2.8012 0.54148 0.29552 1.0715 0.5928 1.5935 0.89274 0.005309 0.14599 0.007078 0.29198 0.010617 0.43885 6.6818 3.9169 11.654 8.1337 14.189 11.153-3.7152-2.7401-8.5451-5.7829-14.218-8.6726zm-11.075-20.023c-17.534-5.882-36.558 2.8092-40.74 8.0913-0.16988 0.215-0.33002 0.44062-0.46451 0.67862-0.014157 0.024773-0.030967 0.074321-0.051317 0.092901 1.236-1.014 2.6083-1.2095 2.6083-1.2095-2.1721 1.0051-2.0757 3.1737-1.705 3.9771 3.164 7.7382 13.043 20.448 27.912 25.441 15.149 5.0813 30.879 0.97148 37.928-3.471 0.82018-0.5813 1.9058-2.0456 0.84761-4.0425 0 0 0.82638 0.84407 1.2581 2.1987 0.18315-1.3157-0.10352-3.179-0.83434-5.36-2.8251-8.4062-12.24-21.525-26.758-26.396z" fill="#DC4405"/> </g> </g> </svg>