<?xml version="1.0" encoding="UTF-8"?> <svg fill="none" viewBox="0 0 500 500" xmlns="http://www.w3.org/2000/svg"> <g clip-path="url(#a)"> <path d="m334.1 124 14.704 45.082-10.94 33.501-25.539-78.583h-114.48l-20.535 62.99-20.453-62.99h-136.86l42.993 69.815 58.896 180.91h110.82l22.272-68.388 22.21 68.388h121.24l81.561-250.72h-145.9zm-255.81 62.722-28.331-45.992h94.734l23.802 73.31-40.656 124.88-49.549-152.2zm142.19 171.64h-81.354l66.444-204.11 40.615 125.03-25.705 79.079zm-1.716-217.63h81.395l28.952 88.923-40.739 125.17-69.608-214.1zm167.36 217.53h-81.334l61.543-189.08-9.264-28.455h99.821l-70.766 217.53z" fill="#FFB612"/> <path d="m329.06 229.67-40.739 125.18-69.546-214.12h81.396l28.889 88.943zm28.021-88.943 9.223 28.455-61.542 189.08h81.333l70.849-217.53h-99.863zm-212.38 0h-94.733l28.331 45.991 49.631 152.2 40.574-124.88-23.803-73.309zm-5.562 217.53h81.457l25.705-78.976-40.718-125.03-66.444 204.01z" fill="#5A1414"/> </g> <defs> <clipPath id="a"> <rect transform="translate(20 124)" width="460" height="250.72" fill="#fff"/> </clipPath> </defs> </svg>